  0
SECTION
  2
HEADER
  9
$ACADVER
  1
AC1014
  9
$HANDSEED
  5
FFFF
  9
$MEASUREMENT
 70
     1
  0
ENDSEC
  0
SECTION
  2
TABLES
  0
TABLE
  2
VPORT
  5
8
330
0
100
AcDbSymbolTable
 70
     4
  0
VPORT
  5
2E
330
8
100
AcDbSymbolTableRecord
100
AcDbViewportTableRecord
  2
*ACTIVE
 70
     0
 10
0.0
 20
0.0
 11
1.0
 21
1.0
 12
210.0
 22
148.5
 13
0.0
 23
0.0
 14
10.0
 24
10.0
 15
10.0
 25
10.0
 16
0.0
 26
0.0
 36
1.0
 17
0.0
 27
0.0
 37
0.0
 40
341.0
 41
1.24
 42
50.0
 43
0.0
 44
0.0
 50
0.0
 51
0.0
 71
     0
 72
   100
 73
     1
 74
     3
 75
     0
 76
     0
 77
     0
 78
     0
  0
ENDTAB
  0
TABLE
  2
LTYPE
  5
5
330
0
100
AcDbSymbolTable
 70
     1
  0
LTYPE
  5
14
330
5
100
AcDbSymbolTableRecord
100
AcDbLinetypeTableRecord
  2
BYBLOCK
 70
     0
  3

 72
    65
 73
     0
 40
0.0
  0
LTYPE
  5
15
330
5
100
AcDbSymbolTableRecord
100
AcDbLinetypeTableRecord
  2
BYLAYER
 70
     0
  3

 72
    65
 73
     0
 40
0.0
  0
LTYPE
  5
16
330
5
100
AcDbSymbolTableRecord
100
AcDbLinetypeTableRecord
  2
CONTINUOUS
 70
     0
  3
Solid line
 72
    65
 73
     0
 40
0.0
  0
ENDTAB
  0
TABLE
  2
LAYER
  5
2
100
AcDbSymbolTable
 70
3
  0
LAYER
  5
50
100
AcDbSymbolTableRecord
100
AcDbLayerTableRecord
  2
0
 70
0
  6
CONTINUOUS
  0
LAYER
  5
51
100
AcDbSymbolTableRecord
100
AcDbLayerTableRecord
  2
cut_outline
 70
0
  6
CONTINUOUS
  0
LAYER
  5
52
100
AcDbSymbolTableRecord
100
AcDbLayerTableRecord
  2
cut_inner
 70
0
  6
CONTINUOUS
  0
ENDTAB
  0
TABLE
  2
STYLE
  5
3
330
0
100
AcDbSymbolTable
 70
     1
  0
STYLE
  5
11
330
3
100
AcDbSymbolTableRecord
100
AcDbTextStyleTableRecord
  2
STANDARD
 70
     0
 40
0.0
 41
1.0
 50
0.0
 71
     0
 42
2.5
  3
txt
  4

  0
ENDTAB
  0
TABLE
  2
VIEW
  5
6
330
0
100
AcDbSymbolTable
 70
     0
  0
ENDTAB
  0
TABLE
  2
UCS
  5
7
330
0
100
AcDbSymbolTable
 70
     0
  0
ENDTAB
  0
TABLE
  2
APPID
  5
9
330
0
100
AcDbSymbolTable
 70
     2
  0
APPID
  5
12
330
9
100
AcDbSymbolTableRecord
100
AcDbRegAppTableRecord
  2
ACAD
 70
     0
  0
ENDTAB
  0
TABLE
  2
DIMSTYLE
  5
A
330
0
100
AcDbSymbolTable
 70
     1
  0
DIMSTYLE
105
27
330
A
100
AcDbSymbolTableRecord
100
AcDbDimStyleTableRecord
  2
ISO-25
 70
     0
  3

  4

  5

  6

  7

 40
1.0
 41
2.5
 42
0.625
 43
3.75
 44
1.25
 45
0.0
 46
0.0
 47
0.0
 48
0.0
140
2.5
141
2.5
142
0.0
143
0.03937007874016
144
1.0
145
0.0
146
1.0
147
0.625
 71
     0
 72
     0
 73
     0
 74
     0
 75
     0
 76
     0
 77
     1
 78
     8
170
     0
171
     3
172
     1
173
     0
174
     0
175
     0
176
     0
177
     0
178
     0
270
     2
271
     2
272
     2
273
     2
274
     3
340
11
275
     0
280
     0
281
     0
282
     0
283
     0
284
     8
285
     0
286
     0
287
     3
288
     0
  0
ENDTAB
  0
TABLE
  2
BLOCK_RECORD
  5
1
330
0
100
AcDbSymbolTable
 70
     1
  0
BLOCK_RECORD
  5
1F
330
1
100
AcDbSymbolTableRecord
100
AcDbBlockTableRecord
  2
*MODEL_SPACE
  0
BLOCK_RECORD
  5
1B
330
1
100
AcDbSymbolTableRecord
100
AcDbBlockTableRecord
  2
*PAPER_SPACE
  0
ENDTAB
  0
ENDSEC
  0
SECTION
  2
BLOCKS
  0
BLOCK
  5
20
330
1F
100
AcDbEntity
  8
0
100
AcDbBlockBegin
  2
*MODEL_SPACE
 70
     0
 10
0.0
 20
0.0
 30
0.0
  3
*MODEL_SPACE
  1

  0
ENDBLK
  5
21
330
1F
100
AcDbEntity
  8
0
100
AcDbBlockEnd
  0
BLOCK
  5
1C
330
1B
100
AcDbEntity
 67
     1
  8
0
100
AcDbBlockBegin
  2
*PAPER_SPACE
  1

  0
ENDBLK
  5
1D
330
1B
100
AcDbEntity
 67
     1
  8
0
100
AcDbBlockEnd
  0
ENDSEC
  0
SECTION
  2
ENTITIES
  0
SPLINE
  5
100
100
AcDbEntity
  8
cut_outline
 62
7
100
AcDbSpline
 70
8
 71
3
 72
8
 73
4
 74
0
 40
0
 40
0
 40
0
 40
0
 40
1
 40
1
 40
1
 40
1
 10
15.809322
 20
280.173721
 30
0.0
 10
15.809322
 20
279.897578
 30
0.0
 10
16.033179
 20
279.673721
 30
0.0
 10
16.309322
 20
279.673721
 30
0.0
  0
LWPOLYLINE
  5
101
100
AcDbEntity
  8
cut_outline
 62
7
100
AcDbPolyline
 90
2
 70
0
 10
15.809322
 20
285.673721
 30
0.0
 10
15.809322
 20
280.173721
 30
0.0
  0
SPLINE
  5
102
100
AcDbEntity
  8
cut_outline
 62
7
100
AcDbSpline
 70
8
 71
3
 72
8
 73
4
 74
0
 40
0
 40
0
 40
0
 40
0
 40
1
 40
1
 40
1
 40
1
 10
11.809322
 20
285.673721
 30
0.0
 10
11.013672
 20
285.673721
 30
0.0
 10
10.250610
 20
285.357650
 30
0.0
 10
9.688001
 20
284.795041
 30
0.0
  0
SPLINE
  5
103
100
AcDbEntity
  8
cut_outline
 62
7
100
AcDbSpline
 70
8
 71
3
 72
8
 73
4
 74
0
 40
0
 40
0
 40
0
 40
0
 40
1
 40
1
 40
1
 40
1
 10
9.688001
 20
284.795041
 30
0.0
 10
9.125392
 20
284.232432
 30
0.0
 10
8.809322
 20
283.469370
 30
0.0
 10
8.809322
 20
282.673721
 30
0.0
  0
LWPOLYLINE
  5
104
100
AcDbEntity
  8
cut_outline
 62
7
100
AcDbPolyline
 90
2
 70
0
 10
15.809322
 20
285.673721
 30
0.0
 10
11.809322
 20
285.673721
 30
0.0
  0
SPLINE
  5
105
100
AcDbEntity
  8
cut_outline
 62
7
100
AcDbSpline
 70
8
 71
3
 72
8
 73
4
 74
0
 40
0
 40
0
 40
0
 40
0
 40
1
 40
1
 40
1
 40
1
 10
8.809322
 20
258.673720
 30
0.0
 10
8.809322
 20
257.016866
 30
0.0
 10
10.152468
 20
255.673721
 30
0.0
 10
11.809322
 20
255.673721
 30
0.0
  0
LWPOLYLINE
  5
106
100
AcDbEntity
  8
cut_outline
 62
7
100
AcDbPolyline
 90
2
 70
0
 10
8.809322
 20
282.673721
 30
0.0
 10
8.809322
 20
258.673720
 30
0.0
  0
SPLINE
  5
107
100
AcDbEntity
  8
cut_outline
 62
7
100
AcDbSpline
 70
8
 71
3
 72
8
 73
4
 74
0
 40
0
 40
0
 40
0
 40
0
 40
1
 40
1
 40
1
 40
1
 10
105.809322
 20
255.673721
 30
0.0
 10
107.466176
 20
255.673722
 30
0.0
 10
108.809321
 20
257.016867
 30
0.0
 10
108.809322
 20
258.673720
 30
0.0
  0
LWPOLYLINE
  5
108
100
AcDbEntity
  8
cut_outline
 62
7
100
AcDbPolyline
 90
2
 70
0
 10
11.809322
 20
255.673721
 30
0.0
 10
105.809322
 20
255.673721
 30
0.0
  0
LWPOLYLINE
  5
109
100
AcDbEntity
  8
cut_outline
 62
7
100
AcDbPolyline
 90
2
 70
0
 10
108.809322
 20
258.673720
 30
0.0
 10
108.809322
 20
265.223722
 30
0.0
  0
SPLINE
  5
10a
100
AcDbEntity
  8
cut_outline
 62
7
100
AcDbSpline
 70
8
 71
3
 72
8
 73
4
 74
0
 40
0
 40
0
 40
0
 40
0
 40
1
 40
1
 40
1
 40
1
 10
105.209321
 20
266.223720
 30
0.0
 10
105.209323
 20
265.671435
 30
0.0
 10
105.657038
 20
265.223721
 30
0.0
 10
106.209322
 20
265.223722
 30
0.0
  0
LWPOLYLINE
  5
10b
100
AcDbEntity
  8
cut_outline
 62
7
100
AcDbPolyline
 90
2
 70
0
 10
106.209322
 20
265.223722
 30
0.0
 10
108.809322
 20
265.223722
 30
0.0
  0
SPLINE
  5
10c
100
AcDbEntity
  8
cut_outline
 62
7
100
AcDbSpline
 70
8
 71
3
 72
8
 73
4
 74
0
 40
0
 40
0
 40
0
 40
0
 40
1
 40
1
 40
1
 40
1
 10
106.209322
 20
276.123721
 30
0.0
 10
105.944106
 20
276.123721
 30
0.0
 10
105.689751
 20
276.018364
 30
0.0
 10
105.502215
 20
275.830828
 30
0.0
  0
SPLINE
  5
10d
100
AcDbEntity
  8
cut_outline
 62
7
100
AcDbSpline
 70
8
 71
3
 72
8
 73
4
 74
0
 40
0
 40
0
 40
0
 40
0
 40
1
 40
1
 40
1
 40
1
 10
105.502215
 20
275.830828
 30
0.0
 10
105.314678
 20
275.643291
 30
0.0
 10
105.209321
 20
275.388937
 30
0.0
 10
105.209321
 20
275.123721
 30
0.0
  0
LWPOLYLINE
  5
10e
100
AcDbEntity
  8
cut_outline
 62
7
100
AcDbPolyline
 90
2
 70
0
 10
105.209321
 20
275.123721
 30
0.0
 10
105.209321
 20
266.223720
 30
0.0
  0
LWPOLYLINE
  5
10f
100
AcDbEntity
  8
cut_outline
 62
7
100
AcDbPolyline
 90
2
 70
0
 10
108.809322
 20
276.123721
 30
0.0
 10
106.209322
 20
276.123721
 30
0.0
  0
LWPOLYLINE
  5
110
100
AcDbEntity
  8
cut_outline
 62
7
100
AcDbPolyline
 90
2
 70
0
 10
108.809322
 20
276.123721
 30
0.0
 10
108.809322
 20
277.673720
 30
0.0
  0
SPLINE
  5
111
100
AcDbEntity
  8
cut_outline
 62
7
100
AcDbSpline
 70
8
 71
3
 72
8
 73
4
 74
0
 40
0
 40
0
 40
0
 40
0
 40
1
 40
1
 40
1
 40
1
 10
98.809321
 20
278.673721
 30
0.0
 10
98.809321
 20
278.408504
 30
0.0
 10
98.914677
 20
278.154150
 30
0.0
 10
99.102214
 20
277.966614
 30
0.0
  0
SPLINE
  5
112
100
AcDbEntity
  8
cut_outline
 62
7
100
AcDbSpline
 70
8
 71
3
 72
8
 73
4
 74
0
 40
0
 40
0
 40
0
 40
0
 40
1
 40
1
 40
1
 40
1
 10
99.102214
 20
277.966614
 30
0.0
 10
99.289750
 20
277.779077
 30
0.0
 10
99.544105
 20
277.673720
 30
0.0
 10
99.809321
 20
277.673720
 30
0.0
  0
LWPOLYLINE
  5
113
100
AcDbEntity
  8
cut_outline
 62
7
100
AcDbPolyline
 90
2
 70
0
 10
99.809321
 20
277.673720
 30
0.0
 10
108.809322
 20
277.673720
 30
0.0
  0
LWPOLYLINE
  5
114
100
AcDbEntity
  8
cut_outline
 62
7
100
AcDbPolyline
 90
2
 70
0
 10
98.809321
 20
285.673721
 30
0.0
 10
98.809321
 20
278.673721
 30
0.0
  0
LWPOLYLINE
  5
115
100
AcDbEntity
  8
cut_outline
 62
7
100
AcDbPolyline
 90
2
 70
0
 10
98.809321
 20
285.673721
 30
0.0
 10
26.509321
 20
285.673721
 30
0.0
  0
SPLINE
  5
116
100
AcDbEntity
  8
cut_outline
 62
7
100
AcDbSpline
 70
8
 71
3
 72
8
 73
4
 74
0
 40
0
 40
0
 40
0
 40
0
 40
1
 40
1
 40
1
 40
1
 10
26.009322
 20
279.673721
 30
0.0
 10
26.285464
 20
279.673721
 30
0.0
 10
26.509321
 20
279.897578
 30
0.0
 10
26.509321
 20
280.173721
 30
0.0
  0
LWPOLYLINE
  5
117
100
AcDbEntity
  8
cut_outline
 62
7
100
AcDbPolyline
 90
2
 70
0
 10
26.509321
 20
280.173721
 30
0.0
 10
26.509321
 20
285.673721
 30
0.0
  0
LWPOLYLINE
  5
118
100
AcDbEntity
  8
cut_outline
 62
7
100
AcDbPolyline
 90
2
 70
0
 10
16.309322
 20
279.673721
 30
0.0
 10
26.009322
 20
279.673721
 30
0.0
  0
SPLINE
  5
119
100
AcDbEntity
  8
cut_inner
 62
1
100
AcDbSpline
 70
8
 71
3
 72
8
 73
4
 74
0
 40
0
 40
0
 40
0
 40
0
 40
1
 40
1
 40
1
 40
1
 10
95.309322
 20
267.173722
 30
0.0
 10
95.176713
 20
267.173722
 30
0.0
 10
95.049536
 20
267.121044
 30
0.0
 10
94.955767
 20
267.027275
 30
0.0
  0
SPLINE
  5
11a
100
AcDbEntity
  8
cut_inner
 62
1
100
AcDbSpline
 70
8
 71
3
 72
8
 73
4
 74
0
 40
0
 40
0
 40
0
 40
0
 40
1
 40
1
 40
1
 40
1
 10
94.955767
 20
267.027275
 30
0.0
 10
94.861999
 20
266.933507
 30
0.0
 10
94.809320
 20
266.806329
 30
0.0
 10
94.809321
 20
266.673720
 30
0.0
  0
LWPOLYLINE
  5
11b
100
AcDbEntity
  8
cut_inner
 62
1
100
AcDbPolyline
 90
2
 70
0
 10
95.309322
 20
267.173722
 30
0.0
 10
95.809321
 20
267.173722
 30
0.0
  0
LWPOLYLINE
  5
11c
100
AcDbEntity
  8
cut_inner
 62
1
100
AcDbPolyline
 90
2
 70
0
 10
94.809321
 20
261.423720
 30
0.0
 10
94.809321
 20
266.673720
 30
0.0
  0
LWPOLYLINE
  5
11d
100
AcDbEntity
  8
cut_inner
 62
1
100
AcDbPolyline
 90
2
 70
0
 10
32.309321
 20
261.423720
 30
0.0
 10
94.809321
 20
261.423720
 30
0.0
  0
LWPOLYLINE
  5
11e
100
AcDbEntity
  8
cut_inner
 62
1
100
AcDbPolyline
 90
2
 70
0
 10
32.309321
 20
279.923720
 30
0.0
 10
32.309321
 20
261.423720
 30
0.0
  0
LWPOLYLINE
  5
11f
100
AcDbEntity
  8
cut_inner
 62
1
100
AcDbPolyline
 90
2
 70
0
 10
94.809321
 20
279.923720
 30
0.0
 10
32.309321
 20
279.923720
 30
0.0
  0
SPLINE
  5
120
100
AcDbEntity
  8
cut_inner
 62
1
100
AcDbSpline
 70
8
 71
3
 72
8
 73
4
 74
0
 40
0
 40
0
 40
0
 40
0
 40
1
 40
1
 40
1
 40
1
 10
94.809321
 20
274.673721
 30
0.0
 10
94.809321
 20
274.541112
 30
0.0
 10
94.861999
 20
274.413935
 30
0.0
 10
94.955768
 20
274.320167
 30
0.0
  0
SPLINE
  5
121
100
AcDbEntity
  8
cut_inner
 62
1
100
AcDbSpline
 70
8
 71
3
 72
8
 73
4
 74
0
 40
0
 40
0
 40
0
 40
0
 40
1
 40
1
 40
1
 40
1
 10
94.955768
 20
274.320167
 30
0.0
 10
95.049536
 20
274.226398
 30
0.0
 10
95.176714
 20
274.173720
 30
0.0
 10
95.309322
 20
274.173721
 30
0.0
  0
LWPOLYLINE
  5
122
100
AcDbEntity
  8
cut_inner
 62
1
100
AcDbPolyline
 90
2
 70
0
 10
94.809321
 20
274.673721
 30
0.0
 10
94.809321
 20
279.923720
 30
0.0
  0
SPLINE
  5
123
100
AcDbEntity
  8
cut_inner
 62
1
100
AcDbSpline
 70
8
 71
3
 72
8
 73
4
 74
0
 40
0
 40
0
 40
0
 40
0
 40
1
 40
1
 40
1
 40
1
 10
96.809322
 20
273.173721
 30
0.0
 10
96.809322
 20
273.438937
 30
0.0
 10
96.703965
 20
273.693291
 30
0.0
 10
96.516428
 20
273.880828
 30
0.0
  0
SPLINE
  5
124
100
AcDbEntity
  8
cut_inner
 62
1
100
AcDbSpline
 70
8
 71
3
 72
8
 73
4
 74
0
 40
0
 40
0
 40
0
 40
0
 40
1
 40
1
 40
1
 40
1
 10
96.516428
 20
273.880828
 30
0.0
 10
96.328892
 20
274.068364
 30
0.0
 10
96.074538
 20
274.173721
 30
0.0
 10
95.809321
 20
274.173721
 30
0.0
  0
LWPOLYLINE
  5
125
100
AcDbEntity
  8
cut_inner
 62
1
100
AcDbPolyline
 90
2
 70
0
 10
95.809321
 20
274.173721
 30
0.0
 10
95.309322
 20
274.173721
 30
0.0
  0
SPLINE
  5
126
100
AcDbEntity
  8
cut_inner
 62
1
100
AcDbSpline
 70
8
 71
3
 72
8
 73
4
 74
0
 40
0
 40
0
 40
0
 40
0
 40
1
 40
1
 40
1
 40
1
 10
95.809321
 20
267.173722
 30
0.0
 10
96.361605
 20
267.173722
 30
0.0
 10
96.809321
 20
267.621436
 30
0.0
 10
96.809322
 20
268.173720
 30
0.0
  0
LWPOLYLINE
  5
127
100
AcDbEntity
  8
cut_inner
 62
1
100
AcDbPolyline
 90
2
 70
0
 10
96.809322
 20
268.173720
 30
0.0
 10
96.809322
 20
273.173721
 30
0.0
  0
SPLINE
  5
128
100
AcDbEntity
  8
cut_inner
 62
1
100
AcDbSpline
 70
8
 71
3
 72
8
 73
4
 74
0
 40
0
 40
0
 40
0
 40
0
 40
1
 40
1
 40
1
 40
1
 10
13.059322
 20
265.573720
 30
0.0
 10
13.059322
 20
264.469151
 30
0.0
 10
13.954753
 20
263.573722
 30
0.0
 10
15.059322
 20
263.573722
 30
0.0
  0
LWPOLYLINE
  5
129
100
AcDbEntity
  8
cut_inner
 62
1
100
AcDbPolyline
 90
2
 70
0
 10
15.059322
 20
263.573722
 30
0.0
 10
24.559322
 20
263.573722
 30
0.0
  0
SPLINE
  5
12a
100
AcDbEntity
  8
cut_inner
 62
1
100
AcDbSpline
 70
8
 71
3
 72
8
 73
4
 74
0
 40
0
 40
0
 40
0
 40
0
 40
1
 40
1
 40
1
 40
1
 10
15.059322
 20
277.773721
 30
0.0
 10
14.528889
 20
277.773721
 30
0.0
 10
14.020181
 20
277.563007
 30
0.0
 10
13.645108
 20
277.187934
 30
0.0
  0
SPLINE
  5
12b
100
AcDbEntity
  8
cut_inner
 62
1
100
AcDbSpline
 70
8
 71
3
 72
8
 73
4
 74
0
 40
0
 40
0
 40
0
 40
0
 40
1
 40
1
 40
1
 40
1
 10
13.645108
 20
277.187934
 30
0.0
 10
13.270035
 20
276.812861
 30
0.0
 10
13.059322
 20
276.304154
 30
0.0
 10
13.059322
 20
275.773721
 30
0.0
  0
LWPOLYLINE
  5
12c
100
AcDbEntity
  8
cut_inner
 62
1
100
AcDbPolyline
 90
2
 70
0
 10
13.059322
 20
275.773721
 30
0.0
 10
13.059322
 20
265.573720
 30
0.0
  0
SPLINE
  5
12d
100
AcDbEntity
  8
cut_inner
 62
1
100
AcDbSpline
 70
8
 71
3
 72
8
 73
4
 74
0
 40
0
 40
0
 40
0
 40
0
 40
1
 40
1
 40
1
 40
1
 10
26.559322
 20
275.773721
 30
0.0
 10
26.559322
 20
276.304154
 30
0.0
 10
26.348608
 20
276.812862
 30
0.0
 10
25.973536
 20
277.187934
 30
0.0
  0
SPLINE
  5
12e
100
AcDbEntity
  8
cut_inner
 62
1
100
AcDbSpline
 70
8
 71
3
 72
8
 73
4
 74
0
 40
0
 40
0
 40
0
 40
0
 40
1
 40
1
 40
1
 40
1
 10
25.973536
 20
277.187934
 30
0.0
 10
25.598463
 20
277.563007
 30
0.0
 10
25.089755
 20
277.773721
 30
0.0
 10
24.559322
 20
277.773721
 30
0.0
  0
LWPOLYLINE
  5
12f
100
AcDbEntity
  8
cut_inner
 62
1
100
AcDbPolyline
 90
2
 70
0
 10
24.559322
 20
277.773721
 30
0.0
 10
15.059322
 20
277.773721
 30
0.0
  0
SPLINE
  5
130
100
AcDbEntity
  8
cut_inner
 62
1
100
AcDbSpline
 70
8
 71
3
 72
8
 73
4
 74
0
 40
0
 40
0
 40
0
 40
0
 40
1
 40
1
 40
1
 40
1
 10
24.559322
 20
263.573722
 30
0.0
 10
25.663891
 20
263.573721
 30
0.0
 10
26.559321
 20
264.469151
 30
0.0
 10
26.559322
 20
265.573720
 30
0.0
  0
SPLINE
  5
131
100
AcDbEntity
  8
cut_inner
 62
1
100
AcDbSpline
 70
8
 71
3
 72
8
 73
4
 74
0
 40
0
 40
0
 40
0
 40
0
 40
1
 40
1
 40
1
 40
1
 10
12.809322
 20
282.673721
 30
0.0
 10
12.809505
 20
283.031109
 30
0.0
 10
12.618947
 20
283.361428
 30
0.0
 10
12.309470
 20
283.540175
 30
0.0
  0
SPLINE
  5
132
100
AcDbEntity
  8
cut_inner
 62
1
100
AcDbSpline
 70
8
 71
3
 72
8
 73
4
 74
0
 40
0
 40
0
 40
0
 40
0
 40
1
 40
1
 40
1
 40
1
 10
12.309470
 20
283.540175
 30
0.0
 10
11.999994
 20
283.718922
 30
0.0
 10
11.618650
 20
283.718922
 30
0.0
 10
11.309173
 20
283.540175
 30
0.0
  0
SPLINE
  5
133
100
AcDbEntity
  8
cut_inner
 62
1
100
AcDbSpline
 70
8
 71
3
 72
8
 73
4
 74
0
 40
0
 40
0
 40
0
 40
0
 40
1
 40
1
 40
1
 40
1
 10
11.309173
 20
283.540175
 30
0.0
 10
10.999697
 20
283.361428
 30
0.0
 10
10.809138
 20
283.031109
 30
0.0
 10
10.809322
 20
282.673721
 30
0.0
  0
SPLINE
  5
134
100
AcDbEntity
  8
cut_inner
 62
1
100
AcDbSpline
 70
8
 71
3
 72
8
 73
4
 74
0
 40
0
 40
0
 40
0
 40
0
 40
1
 40
1
 40
1
 40
1
 10
10.809322
 20
282.673721
 30
0.0
 10
10.809138
 20
282.316332
 30
0.0
 10
10.999697
 20
281.986014
 30
0.0
 10
11.309173
 20
281.807266
 30
0.0
  0
SPLINE
  5
135
100
AcDbEntity
  8
cut_inner
 62
1
100
AcDbSpline
 70
8
 71
3
 72
8
 73
4
 74
0
 40
0
 40
0
 40
0
 40
0
 40
1
 40
1
 40
1
 40
1
 10
11.309173
 20
281.807266
 30
0.0
 10
11.618650
 20
281.628519
 30
0.0
 10
11.999994
 20
281.628519
 30
0.0
 10
12.309470
 20
281.807266
 30
0.0
  0
SPLINE
  5
136
100
AcDbEntity
  8
cut_inner
 62
1
100
AcDbSpline
 70
8
 71
3
 72
8
 73
4
 74
0
 40
0
 40
0
 40
0
 40
0
 40
1
 40
1
 40
1
 40
1
 10
12.309470
 20
281.807266
 30
0.0
 10
12.618947
 20
281.986014
 30
0.0
 10
12.809505
 20
282.316332
 30
0.0
 10
12.809322
 20
282.673721
 30
0.0
  0
LWPOLYLINE
  5
137
100
AcDbEntity
  8
cut_inner
 62
1
100
AcDbPolyline
 90
2
 70
0
 10
26.559322
 20
265.573720
 30
0.0
 10
26.559322
 20
275.773721
 30
0.0
  0
SPLINE
  5
138
100
AcDbEntity
  8
cut_inner
 62
1
100
AcDbSpline
 70
8
 71
3
 72
8
 73
4
 74
0
 40
0
 40
0
 40
0
 40
0
 40
1
 40
1
 40
1
 40
1
 10
12.809322
 20
258.673720
 30
0.0
 10
12.809505
 20
259.031108
 30
0.0
 10
12.618947
 20
259.361427
 30
0.0
 10
12.309470
 20
259.540175
 30
0.0
  0
SPLINE
  5
139
100
AcDbEntity
  8
cut_inner
 62
1
100
AcDbSpline
 70
8
 71
3
 72
8
 73
4
 74
0
 40
0
 40
0
 40
0
 40
0
 40
1
 40
1
 40
1
 40
1
 10
12.309470
 20
259.540175
 30
0.0
 10
11.999994
 20
259.718922
 30
0.0
 10
11.618650
 20
259.718922
 30
0.0
 10
11.309173
 20
259.540175
 30
0.0
  0
SPLINE
  5
13a
100
AcDbEntity
  8
cut_inner
 62
1
100
AcDbSpline
 70
8
 71
3
 72
8
 73
4
 74
0
 40
0
 40
0
 40
0
 40
0
 40
1
 40
1
 40
1
 40
1
 10
11.309173
 20
259.540175
 30
0.0
 10
10.999697
 20
259.361427
 30
0.0
 10
10.809138
 20
259.031108
 30
0.0
 10
10.809322
 20
258.673720
 30
0.0
  0
SPLINE
  5
13b
100
AcDbEntity
  8
cut_inner
 62
1
100
AcDbSpline
 70
8
 71
3
 72
8
 73
4
 74
0
 40
0
 40
0
 40
0
 40
0
 40
1
 40
1
 40
1
 40
1
 10
10.809322
 20
258.673720
 30
0.0
 10
10.809138
 20
258.316332
 30
0.0
 10
10.999697
 20
257.986013
 30
0.0
 10
11.309173
 20
257.807266
 30
0.0
  0
SPLINE
  5
13c
100
AcDbEntity
  8
cut_inner
 62
1
100
AcDbSpline
 70
8
 71
3
 72
8
 73
4
 74
0
 40
0
 40
0
 40
0
 40
0
 40
1
 40
1
 40
1
 40
1
 10
11.309173
 20
257.807266
 30
0.0
 10
11.618650
 20
257.628519
 30
0.0
 10
11.999994
 20
257.628519
 30
0.0
 10
12.309470
 20
257.807266
 30
0.0
  0
SPLINE
  5
13d
100
AcDbEntity
  8
cut_inner
 62
1
100
AcDbSpline
 70
8
 71
3
 72
8
 73
4
 74
0
 40
0
 40
0
 40
0
 40
0
 40
1
 40
1
 40
1
 40
1
 10
12.309470
 20
257.807266
 30
0.0
 10
12.618947
 20
257.986013
 30
0.0
 10
12.809505
 20
258.316332
 30
0.0
 10
12.809322
 20
258.673720
 30
0.0
  0
LWPOLYLINE
  5
13e
100
AcDbEntity
  8
cut_inner
 62
1
100
AcDbPolyline
 90
1
 70
1
 10
12.809322
 20
282.673721
 30
0.0
  0
SPLINE
  5
13f
100
AcDbEntity
  8
cut_inner
 62
1
100
AcDbSpline
 70
8
 71
3
 72
8
 73
4
 74
0
 40
0
 40
0
 40
0
 40
0
 40
1
 40
1
 40
1
 40
1
 10
106.809323
 20
258.673720
 30
0.0
 10
106.809323
 20
259.030986
 30
0.0
 10
106.618724
 20
259.361113
 30
0.0
 10
106.309323
 20
259.539746
 30
0.0
  0
SPLINE
  5
140
100
AcDbEntity
  8
cut_inner
 62
1
100
AcDbSpline
 70
8
 71
3
 72
8
 73
4
 74
0
 40
0
 40
0
 40
0
 40
0
 40
1
 40
1
 40
1
 40
1
 10
106.309323
 20
259.539746
 30
0.0
 10
105.999921
 20
259.718379
 30
0.0
 10
105.618723
 20
259.718379
 30
0.0
 10
105.309322
 20
259.539746
 30
0.0
  0
SPLINE
  5
141
100
AcDbEntity
  8
cut_inner
 62
1
100
AcDbSpline
 70
8
 71
3
 72
8
 73
4
 74
0
 40
0
 40
0
 40
0
 40
0
 40
1
 40
1
 40
1
 40
1
 10
105.309322
 20
259.539746
 30
0.0
 10
104.999921
 20
259.361113
 30
0.0
 10
104.809322
 20
259.030986
 30
0.0
 10
104.809322
 20
258.673720
 30
0.0
  0
SPLINE
  5
142
100
AcDbEntity
  8
cut_inner
 62
1
100
AcDbSpline
 70
8
 71
3
 72
8
 73
4
 74
0
 40
0
 40
0
 40
0
 40
0
 40
1
 40
1
 40
1
 40
1
 10
104.809322
 20
258.673720
 30
0.0
 10
104.809322
 20
258.316455
 30
0.0
 10
104.999921
 20
257.986327
 30
0.0
 10
105.309322
 20
257.807694
 30
0.0
  0
SPLINE
  5
143
100
AcDbEntity
  8
cut_inner
 62
1
100
AcDbSpline
 70
8
 71
3
 72
8
 73
4
 74
0
 40
0
 40
0
 40
0
 40
0
 40
1
 40
1
 40
1
 40
1
 10
105.309322
 20
257.807694
 30
0.0
 10
105.618723
 20
257.629062
 30
0.0
 10
105.999921
 20
257.629062
 30
0.0
 10
106.309323
 20
257.807694
 30
0.0
  0
SPLINE
  5
144
100
AcDbEntity
  8
cut_inner
 62
1
100
AcDbSpline
 70
8
 71
3
 72
8
 73
4
 74
0
 40
0
 40
0
 40
0
 40
0
 40
1
 40
1
 40
1
 40
1
 10
106.309323
 20
257.807694
 30
0.0
 10
106.618724
 20
257.986327
 30
0.0
 10
106.809323
 20
258.316455
 30
0.0
 10
106.809323
 20
258.673720
 30
0.0
  0
LWPOLYLINE
  5
145
100
AcDbEntity
  8
cut_inner
 62
1
100
AcDbPolyline
 90
1
 70
1
 10
12.809322
 20
258.673720
 30
0.0
  0
LWPOLYLINE
  5
146
100
AcDbEntity
  8
cut_inner
 62
1
100
AcDbPolyline
 90
1
 70
1
 10
106.809323
 20
258.673720
 30
0.0
  0
ENDSEC
  0
SECTION
  2
OBJECTS
  0
DICTIONARY
  5
C
330
0
100
AcDbDictionary
  3
ACAD_GROUP
350
D
  3
ACAD_MLINESTYLE
350
17
  0
DICTIONARY
  5
D
330
C
100
AcDbDictionary
  0
DICTIONARY
  5
1A
330
C
100
AcDbDictionary
  0
DICTIONARY
  5
17
330
C
100
AcDbDictionary
  3
STANDARD
350
18
  0
DICTIONARY
  5
19
330
C
100
AcDbDictionary
  0
ENDSEC
  0
EOF
