  0
SECTION
  2
HEADER
  9
$ACADVER
  1
AC1014
  9
$HANDSEED
  5
FFFF
  9
$MEASUREMENT
 70
     1
  0
ENDSEC
  0
SECTION
  2
TABLES
  0
TABLE
  2
VPORT
  5
8
330
0
100
AcDbSymbolTable
 70
     4
  0
VPORT
  5
2E
330
8
100
AcDbSymbolTableRecord
100
AcDbViewportTableRecord
  2
*ACTIVE
 70
     0
 10
0.0
 20
0.0
 11
1.0
 21
1.0
 12
210.0
 22
148.5
 13
0.0
 23
0.0
 14
10.0
 24
10.0
 15
10.0
 25
10.0
 16
0.0
 26
0.0
 36
1.0
 17
0.0
 27
0.0
 37
0.0
 40
341.0
 41
1.24
 42
50.0
 43
0.0
 44
0.0
 50
0.0
 51
0.0
 71
     0
 72
   100
 73
     1
 74
     3
 75
     0
 76
     0
 77
     0
 78
     0
  0
ENDTAB
  0
TABLE
  2
LTYPE
  5
5
330
0
100
AcDbSymbolTable
 70
     1
  0
LTYPE
  5
14
330
5
100
AcDbSymbolTableRecord
100
AcDbLinetypeTableRecord
  2
BYBLOCK
 70
     0
  3

 72
    65
 73
     0
 40
0.0
  0
LTYPE
  5
15
330
5
100
AcDbSymbolTableRecord
100
AcDbLinetypeTableRecord
  2
BYLAYER
 70
     0
  3

 72
    65
 73
     0
 40
0.0
  0
LTYPE
  5
16
330
5
100
AcDbSymbolTableRecord
100
AcDbLinetypeTableRecord
  2
CONTINUOUS
 70
     0
  3
Solid line
 72
    65
 73
     0
 40
0.0
  0
ENDTAB
  0
TABLE
  2
LAYER
  5
2
100
AcDbSymbolTable
 70
3
  0
LAYER
  5
50
100
AcDbSymbolTableRecord
100
AcDbLayerTableRecord
  2
0
 70
0
  6
CONTINUOUS
  0
LAYER
  5
51
100
AcDbSymbolTableRecord
100
AcDbLayerTableRecord
  2
cut_outline
 70
0
  6
CONTINUOUS
  0
LAYER
  5
52
100
AcDbSymbolTableRecord
100
AcDbLayerTableRecord
  2
cut_inner
 70
0
  6
CONTINUOUS
  0
ENDTAB
  0
TABLE
  2
STYLE
  5
3
330
0
100
AcDbSymbolTable
 70
     1
  0
STYLE
  5
11
330
3
100
AcDbSymbolTableRecord
100
AcDbTextStyleTableRecord
  2
STANDARD
 70
     0
 40
0.0
 41
1.0
 50
0.0
 71
     0
 42
2.5
  3
txt
  4

  0
ENDTAB
  0
TABLE
  2
VIEW
  5
6
330
0
100
AcDbSymbolTable
 70
     0
  0
ENDTAB
  0
TABLE
  2
UCS
  5
7
330
0
100
AcDbSymbolTable
 70
     0
  0
ENDTAB
  0
TABLE
  2
APPID
  5
9
330
0
100
AcDbSymbolTable
 70
     2
  0
APPID
  5
12
330
9
100
AcDbSymbolTableRecord
100
AcDbRegAppTableRecord
  2
ACAD
 70
     0
  0
ENDTAB
  0
TABLE
  2
DIMSTYLE
  5
A
330
0
100
AcDbSymbolTable
 70
     1
  0
DIMSTYLE
105
27
330
A
100
AcDbSymbolTableRecord
100
AcDbDimStyleTableRecord
  2
ISO-25
 70
     0
  3

  4

  5

  6

  7

 40
1.0
 41
2.5
 42
0.625
 43
3.75
 44
1.25
 45
0.0
 46
0.0
 47
0.0
 48
0.0
140
2.5
141
2.5
142
0.0
143
0.03937007874016
144
1.0
145
0.0
146
1.0
147
0.625
 71
     0
 72
     0
 73
     0
 74
     0
 75
     0
 76
     0
 77
     1
 78
     8
170
     0
171
     3
172
     1
173
     0
174
     0
175
     0
176
     0
177
     0
178
     0
270
     2
271
     2
272
     2
273
     2
274
     3
340
11
275
     0
280
     0
281
     0
282
     0
283
     0
284
     8
285
     0
286
     0
287
     3
288
     0
  0
ENDTAB
  0
TABLE
  2
BLOCK_RECORD
  5
1
330
0
100
AcDbSymbolTable
 70
     1
  0
BLOCK_RECORD
  5
1F
330
1
100
AcDbSymbolTableRecord
100
AcDbBlockTableRecord
  2
*MODEL_SPACE
  0
BLOCK_RECORD
  5
1B
330
1
100
AcDbSymbolTableRecord
100
AcDbBlockTableRecord
  2
*PAPER_SPACE
  0
ENDTAB
  0
ENDSEC
  0
SECTION
  2
BLOCKS
  0
BLOCK
  5
20
330
1F
100
AcDbEntity
  8
0
100
AcDbBlockBegin
  2
*MODEL_SPACE
 70
     0
 10
0.0
 20
0.0
 30
0.0
  3
*MODEL_SPACE
  1

  0
ENDBLK
  5
21
330
1F
100
AcDbEntity
  8
0
100
AcDbBlockEnd
  0
BLOCK
  5
1C
330
1B
100
AcDbEntity
 67
     1
  8
0
100
AcDbBlockBegin
  2
*PAPER_SPACE
  1

  0
ENDBLK
  5
1D
330
1B
100
AcDbEntity
 67
     1
  8
0
100
AcDbBlockEnd
  0
ENDSEC
  0
SECTION
  2
ENTITIES
  0
LWPOLYLINE
  5
100
100
AcDbEntity
  8
cut_outline
 62
7
100
AcDbPolyline
 90
2
 70
0
 10
5.930867
 20
288.114413
 30
0.0
 10
5.930867
 20
281.514408
 30
0.0
  0
SPLINE
  5
101
100
AcDbEntity
  8
cut_outline
 62
7
100
AcDbSpline
 70
8
 71
3
 72
8
 73
4
 74
0
 40
0
 40
0
 40
0
 40
0
 40
1
 40
1
 40
1
 40
1
 10
8.530868
 20
281.014425
 30
0.0
 10
8.530858
 20
281.290562
 30
0.0
 10
8.307003
 20
281.514409
 30
0.0
 10
8.030866
 20
281.514408
 30
0.0
  0
LWPOLYLINE
  5
102
100
AcDbEntity
  8
cut_outline
 62
7
100
AcDbPolyline
 90
2
 70
0
 10
8.030866
 20
281.514408
 30
0.0
 10
5.930867
 20
281.514408
 30
0.0
  0
SPLINE
  5
103
100
AcDbEntity
  8
cut_outline
 62
7
100
AcDbSpline
 70
8
 71
3
 72
8
 73
4
 74
0
 40
0
 40
0
 40
0
 40
0
 40
1
 40
1
 40
1
 40
1
 10
8.030866
 20
270.814420
 30
0.0
 10
8.163476
 20
270.814420
 30
0.0
 10
8.290655
 20
270.867099
 30
0.0
 10
8.384424
 20
270.960870
 30
0.0
  0
SPLINE
  5
104
100
AcDbEntity
  8
cut_outline
 62
7
100
AcDbSpline
 70
8
 71
3
 72
8
 73
4
 74
0
 40
0
 40
0
 40
0
 40
0
 40
1
 40
1
 40
1
 40
1
 10
8.384424
 20
270.960870
 30
0.0
 10
8.478193
 20
271.054640
 30
0.0
 10
8.530870
 20
271.181820
 30
0.0
 10
8.530868
 20
271.314430
 30
0.0
  0
LWPOLYLINE
  5
105
100
AcDbEntity
  8
cut_outline
 62
7
100
AcDbPolyline
 90
2
 70
0
 10
8.530868
 20
271.314430
 30
0.0
 10
8.530868
 20
281.014425
 30
0.0
  0
LWPOLYLINE
  5
106
100
AcDbEntity
  8
cut_outline
 62
7
100
AcDbPolyline
 90
2
 70
0
 10
5.930867
 20
270.814420
 30
0.0
 10
8.030866
 20
270.814420
 30
0.0
  0
SPLINE
  5
107
100
AcDbEntity
  8
cut_outline
 62
7
100
AcDbSpline
 70
8
 71
3
 72
8
 73
4
 74
0
 40
0
 40
0
 40
0
 40
0
 40
1
 40
1
 40
1
 40
1
 10
5.930867
 20
264.114430
 30
0.0
 10
5.930865
 20
263.318779
 30
0.0
 10
6.246936
 20
262.555716
 30
0.0
 10
6.809545
 20
261.993106
 30
0.0
  0
SPLINE
  5
108
100
AcDbEntity
  8
cut_outline
 62
7
100
AcDbSpline
 70
8
 71
3
 72
8
 73
4
 74
0
 40
0
 40
0
 40
0
 40
0
 40
1
 40
1
 40
1
 40
1
 10
6.809545
 20
261.993106
 30
0.0
 10
7.372154
 20
261.430496
 30
0.0
 10
8.135217
 20
261.114425
 30
0.0
 10
8.930868
 20
261.114425
 30
0.0
  0
LWPOLYLINE
  5
109
100
AcDbEntity
  8
cut_outline
 62
7
100
AcDbPolyline
 90
2
 70
0
 10
5.930867
 20
270.814420
 30
0.0
 10
5.930867
 20
264.114430
 30
0.0
  0
LWPOLYLINE
  5
10a
100
AcDbEntity
  8
cut_outline
 62
7
100
AcDbPolyline
 90
2
 70
0
 10
8.930868
 20
261.114425
 30
0.0
 10
54.530866
 20
261.114425
 30
0.0
  0
SPLINE
  5
10b
100
AcDbEntity
  8
cut_outline
 62
7
100
AcDbSpline
 70
8
 71
3
 72
8
 73
4
 74
0
 40
0
 40
0
 40
0
 40
0
 40
1
 40
1
 40
1
 40
1
 10
55.030865
 20
265.114422
 30
0.0
 10
54.898255
 20
265.114422
 30
0.0
 10
54.771077
 20
265.061742
 30
0.0
 10
54.677309
 20
264.967972
 30
0.0
  0
SPLINE
  5
10c
100
AcDbEntity
  8
cut_outline
 62
7
100
AcDbSpline
 70
8
 71
3
 72
8
 73
4
 74
0
 40
0
 40
0
 40
0
 40
0
 40
1
 40
1
 40
1
 40
1
 10
54.677309
 20
264.967972
 30
0.0
 10
54.583540
 20
264.874202
 30
0.0
 10
54.530863
 20
264.747022
 30
0.0
 10
54.530866
 20
264.614413
 30
0.0
  0
LWPOLYLINE
  5
10d
100
AcDbEntity
  8
cut_outline
 62
7
100
AcDbPolyline
 90
2
 70
0
 10
54.530866
 20
264.614413
 30
0.0
 10
54.530866
 20
261.114425
 30
0.0
  0
SPLINE
  5
10e
100
AcDbEntity
  8
cut_outline
 62
7
100
AcDbSpline
 70
8
 71
3
 72
8
 73
4
 74
0
 40
0
 40
0
 40
0
 40
0
 40
1
 40
1
 40
1
 40
1
 10
62.830866
 20
264.614413
 30
0.0
 10
62.830869
 20
264.747023
 30
0.0
 10
62.778191
 20
264.874202
 30
0.0
 10
62.684422
 20
264.967973
 30
0.0
  0
SPLINE
  5
10f
100
AcDbEntity
  8
cut_outline
 62
7
100
AcDbSpline
 70
8
 71
3
 72
8
 73
4
 74
0
 40
0
 40
0
 40
0
 40
0
 40
1
 40
1
 40
1
 40
1
 10
62.684422
 20
264.967973
 30
0.0
 10
62.590653
 20
265.061743
 30
0.0
 10
62.463475
 20
265.114423
 30
0.0
 10
62.330864
 20
265.114422
 30
0.0
  0
LWPOLYLINE
  5
110
100
AcDbEntity
  8
cut_outline
 62
7
100
AcDbPolyline
 90
2
 70
0
 10
62.330864
 20
265.114422
 30
0.0
 10
55.030865
 20
265.114422
 30
0.0
  0
LWPOLYLINE
  5
111
100
AcDbEntity
  8
cut_outline
 62
7
100
AcDbPolyline
 90
2
 70
0
 10
62.830866
 20
261.114425
 30
0.0
 10
62.830866
 20
264.614413
 30
0.0
  0
SPLINE
  5
112
100
AcDbEntity
  8
cut_outline
 62
7
100
AcDbSpline
 70
8
 71
3
 72
8
 73
4
 74
0
 40
0
 40
0
 40
0
 40
0
 40
1
 40
1
 40
1
 40
1
 10
102.930865
 20
261.114425
 30
0.0
 10
103.726515
 20
261.114424
 30
0.0
 10
104.489578
 20
261.430495
 30
0.0
 10
105.052188
 20
261.993106
 30
0.0
  0
SPLINE
  5
113
100
AcDbEntity
  8
cut_outline
 62
7
100
AcDbSpline
 70
8
 71
3
 72
8
 73
4
 74
0
 40
0
 40
0
 40
0
 40
0
 40
1
 40
1
 40
1
 40
1
 10
105.052188
 20
261.993106
 30
0.0
 10
105.614798
 20
262.555716
 30
0.0
 10
105.930868
 20
263.318779
 30
0.0
 10
105.930867
 20
264.114430
 30
0.0
  0
LWPOLYLINE
  5
114
100
AcDbEntity
  8
cut_outline
 62
7
100
AcDbPolyline
 90
2
 70
0
 10
62.830866
 20
261.114425
 30
0.0
 10
102.930865
 20
261.114425
 30
0.0
  0
LWPOLYLINE
  5
115
100
AcDbEntity
  8
cut_outline
 62
7
100
AcDbPolyline
 90
2
 70
0
 10
105.930867
 20
264.114430
 30
0.0
 10
105.930867
 20
270.664428
 30
0.0
  0
SPLINE
  5
116
100
AcDbEntity
  8
cut_outline
 62
7
100
AcDbSpline
 70
8
 71
3
 72
8
 73
4
 74
0
 40
0
 40
0
 40
0
 40
0
 40
1
 40
1
 40
1
 40
1
 10
102.330866
 20
271.164411
 30
0.0
 10
102.330876
 20
270.888276
 30
0.0
 10
102.554730
 20
270.664429
 30
0.0
 10
102.830865
 20
270.664428
 30
0.0
  0
LWPOLYLINE
  5
117
100
AcDbEntity
  8
cut_outline
 62
7
100
AcDbPolyline
 90
2
 70
0
 10
102.830865
 20
270.664428
 30
0.0
 10
105.930867
 20
270.664428
 30
0.0
  0
SPLINE
  5
118
100
AcDbEntity
  8
cut_outline
 62
7
100
AcDbSpline
 70
8
 71
3
 72
8
 73
4
 74
0
 40
0
 40
0
 40
0
 40
0
 40
1
 40
1
 40
1
 40
1
 10
102.830865
 20
281.564415
 30
0.0
 10
102.554730
 20
281.564414
 30
0.0
 10
102.330876
 20
281.340567
 30
0.0
 10
102.330866
 20
281.064432
 30
0.0
  0
LWPOLYLINE
  5
119
100
AcDbEntity
  8
cut_outline
 62
7
100
AcDbPolyline
 90
2
 70
0
 10
102.330866
 20
281.064432
 30
0.0
 10
102.330866
 20
271.164411
 30
0.0
  0
LWPOLYLINE
  5
11a
100
AcDbEntity
  8
cut_outline
 62
7
100
AcDbPolyline
 90
2
 70
0
 10
105.930867
 20
281.564415
 30
0.0
 10
102.830865
 20
281.564415
 30
0.0
  0
LWPOLYLINE
  5
11b
100
AcDbEntity
  8
cut_outline
 62
7
100
AcDbPolyline
 90
2
 70
0
 10
105.930867
 20
281.564415
 30
0.0
 10
105.930867
 20
283.114423
 30
0.0
  0
SPLINE
  5
11c
100
AcDbEntity
  8
cut_outline
 62
7
100
AcDbSpline
 70
8
 71
3
 72
8
 73
4
 74
0
 40
0
 40
0
 40
0
 40
0
 40
1
 40
1
 40
1
 40
1
 10
95.930866
 20
284.114416
 30
0.0
 10
95.930870
 20
283.562134
 30
0.0
 10
96.378584
 20
283.114423
 30
0.0
 10
96.930866
 20
283.114423
 30
0.0
  0
LWPOLYLINE
  5
11d
100
AcDbEntity
  8
cut_outline
 62
7
100
AcDbPolyline
 90
2
 70
0
 10
96.930866
 20
283.114423
 30
0.0
 10
105.930867
 20
283.114423
 30
0.0
  0
LWPOLYLINE
  5
11e
100
AcDbEntity
  8
cut_outline
 62
7
100
AcDbPolyline
 90
2
 70
0
 10
95.930866
 20
291.114418
 30
0.0
 10
95.930866
 20
284.114416
 30
0.0
  0
LWPOLYLINE
  5
11f
100
AcDbEntity
  8
cut_outline
 62
7
100
AcDbPolyline
 90
2
 70
0
 10
95.930866
 20
291.114418
 30
0.0
 10
39.030865
 20
291.114418
 30
0.0
  0
SPLINE
  5
120
100
AcDbEntity
  8
cut_outline
 62
7
100
AcDbSpline
 70
8
 71
3
 72
8
 73
4
 74
0
 40
0
 40
0
 40
0
 40
0
 40
1
 40
1
 40
1
 40
1
 10
38.152186
 20
283.235735
 30
0.0
 10
38.714796
 20
283.798345
 30
0.0
 10
39.030866
 20
284.561408
 30
0.0
 10
39.030865
 20
285.357058
 30
0.0
  0
LWPOLYLINE
  5
121
100
AcDbEntity
  8
cut_outline
 62
7
100
AcDbPolyline
 90
2
 70
0
 10
39.030865
 20
285.357058
 30
0.0
 10
39.030865
 20
291.114418
 30
0.0
  0
SPLINE
  5
122
100
AcDbEntity
  8
cut_outline
 62
7
100
AcDbSpline
 70
8
 71
3
 72
8
 73
4
 74
0
 40
0
 40
0
 40
0
 40
0
 40
1
 40
1
 40
1
 40
1
 10
33.288224
 20
279.614409
 30
0.0
 10
34.083874
 20
279.614409
 30
0.0
 10
34.846936
 20
279.930481
 30
0.0
 10
35.409545
 20
280.493090
 30
0.0
  0
LWPOLYLINE
  5
123
100
AcDbEntity
  8
cut_outline
 62
7
100
AcDbPolyline
 90
2
 70
0
 10
35.409545
 20
280.493090
 30
0.0
 10
38.152186
 20
283.235735
 30
0.0
  0
SPLINE
  5
124
100
AcDbEntity
  8
cut_outline
 62
7
100
AcDbSpline
 70
8
 71
3
 72
8
 73
4
 74
0
 40
0
 40
0
 40
0
 40
0
 40
1
 40
1
 40
1
 40
1
 10
28.760994
 20
280.016338
 30
0.0
 10
29.217051
 20
279.753031
 30
0.0
 10
29.734383
 20
279.614411
 30
0.0
 10
30.260994
 20
279.614409
 30
0.0
  0
LWPOLYLINE
  5
125
100
AcDbEntity
  8
cut_outline
 62
7
100
AcDbPolyline
 90
2
 70
0
 10
30.260994
 20
279.614409
 30
0.0
 10
33.288224
 20
279.614409
 30
0.0
  0
SPLINE
  5
126
100
AcDbEntity
  8
cut_outline
 62
7
100
AcDbSpline
 70
8
 71
3
 72
8
 73
4
 74
0
 40
0
 40
0
 40
0
 40
0
 40
1
 40
1
 40
1
 40
1
 10
26.428943
 20
281.826855
 30
0.0
 10
26.692249
 20
281.370798
 30
0.0
 10
27.070962
 20
280.992085
 30
0.0
 10
27.527020
 20
280.728781
 30
0.0
  0
LWPOLYLINE
  5
127
100
AcDbEntity
  8
cut_outline
 62
7
100
AcDbPolyline
 90
2
 70
0
 10
27.527020
 20
280.728781
 30
0.0
 10
28.760994
 20
280.016338
 30
0.0
  0
SPLINE
  5
128
100
AcDbEntity
  8
cut_outline
 62
7
100
AcDbSpline
 70
8
 71
3
 72
8
 73
4
 74
0
 40
0
 40
0
 40
0
 40
0
 40
1
 40
1
 40
1
 40
1
 10
24.530868
 20
285.918266
 30
0.0
 10
24.530867
 20
285.391655
 30
0.0
 10
24.669486
 20
284.874322
 30
0.0
 10
24.932791
 20
284.418263
 30
0.0
  0
LWPOLYLINE
  5
129
100
AcDbEntity
  8
cut_outline
 62
7
100
AcDbPolyline
 90
2
 70
0
 10
24.932791
 20
284.418263
 30
0.0
 10
26.428943
 20
281.826855
 30
0.0
  0
LWPOLYLINE
  5
12a
100
AcDbEntity
  8
cut_outline
 62
7
100
AcDbPolyline
 90
2
 70
0
 10
24.530868
 20
291.114418
 30
0.0
 10
24.530868
 20
285.918266
 30
0.0
  0
LWPOLYLINE
  5
12b
100
AcDbEntity
  8
cut_outline
 62
7
100
AcDbPolyline
 90
2
 70
0
 10
24.530868
 20
291.114418
 30
0.0
 10
23.630866
 20
291.114418
 30
0.0
  0
SPLINE
  5
12c
100
AcDbEntity
  8
cut_outline
 62
7
100
AcDbSpline
 70
8
 71
3
 72
8
 73
4
 74
0
 40
0
 40
0
 40
0
 40
0
 40
1
 40
1
 40
1
 40
1
 10
23.130867
 20
287.714416
 30
0.0
 10
23.263477
 20
287.714416
 30
0.0
 10
23.390655
 20
287.767096
 30
0.0
 10
23.484423
 20
287.860867
 30
0.0
  0
SPLINE
  5
12d
100
AcDbEntity
  8
cut_outline
 62
7
100
AcDbSpline
 70
8
 71
3
 72
8
 73
4
 74
0
 40
0
 40
0
 40
0
 40
0
 40
1
 40
1
 40
1
 40
1
 10
23.484423
 20
287.860867
 30
0.0
 10
23.578192
 20
287.954637
 30
0.0
 10
23.630869
 20
288.081816
 30
0.0
 10
23.630866
 20
288.214426
 30
0.0
  0
LWPOLYLINE
  5
12e
100
AcDbEntity
  8
cut_outline
 62
7
100
AcDbPolyline
 90
2
 70
0
 10
23.630866
 20
288.214426
 30
0.0
 10
23.630866
 20
291.114418
 30
0.0
  0
SPLINE
  5
12f
100
AcDbEntity
  8
cut_outline
 62
7
100
AcDbSpline
 70
8
 71
3
 72
8
 73
4
 74
0
 40
0
 40
0
 40
0
 40
0
 40
1
 40
1
 40
1
 40
1
 10
12.930867
 20
288.214426
 30
0.0
 10
12.930865
 20
288.081816
 30
0.0
 10
12.983542
 20
287.954637
 30
0.0
 10
13.077310
 20
287.860867
 30
0.0
  0
SPLINE
  5
130
100
AcDbEntity
  8
cut_outline
 62
7
100
AcDbSpline
 70
8
 71
3
 72
8
 73
4
 74
0
 40
0
 40
0
 40
0
 40
0
 40
1
 40
1
 40
1
 40
1
 10
13.077310
 20
287.860867
 30
0.0
 10
13.171079
 20
287.767096
 30
0.0
 10
13.298257
 20
287.714416
 30
0.0
 10
13.430866
 20
287.714416
 30
0.0
  0
LWPOLYLINE
  5
131
100
AcDbEntity
  8
cut_outline
 62
7
100
AcDbPolyline
 90
2
 70
0
 10
13.430866
 20
287.714416
 30
0.0
 10
23.130867
 20
287.714416
 30
0.0
  0
LWPOLYLINE
  5
132
100
AcDbEntity
  8
cut_outline
 62
7
100
AcDbPolyline
 90
2
 70
0
 10
12.930867
 20
291.114418
 30
0.0
 10
12.930867
 20
288.214426
 30
0.0
  0
SPLINE
  5
133
100
AcDbEntity
  8
cut_outline
 62
7
100
AcDbSpline
 70
8
 71
3
 72
8
 73
4
 74
0
 40
0
 40
0
 40
0
 40
0
 40
1
 40
1
 40
1
 40
1
 10
8.930868
 20
291.114418
 30
0.0
 10
8.135217
 20
291.114418
 30
0.0
 10
7.372154
 20
290.798347
 30
0.0
 10
6.809545
 20
290.235737
 30
0.0
  0
SPLINE
  5
134
100
AcDbEntity
  8
cut_outline
 62
7
100
AcDbSpline
 70
8
 71
3
 72
8
 73
4
 74
0
 40
0
 40
0
 40
0
 40
0
 40
1
 40
1
 40
1
 40
1
 10
6.809545
 20
290.235737
 30
0.0
 10
6.246936
 20
289.673127
 30
0.0
 10
5.930865
 20
288.910064
 30
0.0
 10
5.930867
 20
288.114413
 30
0.0
  0
LWPOLYLINE
  5
135
100
AcDbEntity
  8
cut_outline
 62
7
100
AcDbPolyline
 90
2
 70
0
 10
12.930867
 20
291.114418
 30
0.0
 10
8.930868
 20
291.114418
 30
0.0
  0
SPLINE
  5
136
100
AcDbEntity
  8
cut_inner
 62
1
100
AcDbSpline
 70
8
 71
3
 72
8
 73
4
 74
0
 40
0
 40
0
 40
0
 40
0
 40
1
 40
1
 40
1
 40
1
 10
99.430866
 20
281.464429
 30
0.0
 10
99.430864
 20
281.384862
 30
0.0
 10
99.462469
 20
281.308553
 30
0.0
 10
99.518730
 20
281.252290
 30
0.0
  0
SPLINE
  5
137
100
AcDbEntity
  8
cut_inner
 62
1
100
AcDbSpline
 70
8
 71
3
 72
8
 73
4
 74
0
 40
0
 40
0
 40
0
 40
0
 40
1
 40
1
 40
1
 40
1
 10
99.518730
 20
281.252290
 30
0.0
 10
99.574990
 20
281.196027
 30
0.0
 10
99.651298
 20
281.164418
 30
0.0
 10
99.730864
 20
281.164418
 30
0.0
  0
LWPOLYLINE
  5
138
100
AcDbEntity
  8
cut_inner
 62
1
100
AcDbPolyline
 90
2
 70
0
 10
99.730864
 20
281.164418
 30
0.0
 10
100.930866
 20
281.164418
 30
0.0
  0
SPLINE
  5
139
100
AcDbEntity
  8
cut_inner
 62
1
100
AcDbSpline
 70
8
 71
3
 72
8
 73
4
 74
0
 40
0
 40
0
 40
0
 40
0
 40
1
 40
1
 40
1
 40
1
 10
99.730864
 20
282.364409
 30
0.0
 10
99.565186
 20
282.364408
 30
0.0
 10
99.430875
 20
282.230103
 30
0.0
 10
99.430866
 20
282.064424
 30
0.0
  0
LWPOLYLINE
  5
13a
100
AcDbEntity
  8
cut_inner
 62
1
100
AcDbPolyline
 90
2
 70
0
 10
99.430866
 20
282.064424
 30
0.0
 10
99.430866
 20
281.464429
 30
0.0
  0
SPLINE
  5
13b
100
AcDbEntity
  8
cut_inner
 62
1
100
AcDbSpline
 70
8
 71
3
 72
8
 73
4
 74
0
 40
0
 40
0
 40
0
 40
0
 40
1
 40
1
 40
1
 40
1
 10
101.230867
 20
282.064424
 30
0.0
 10
101.230858
 20
282.230104
 30
0.0
 10
101.096546
 20
282.364409
 30
0.0
 10
100.930866
 20
282.364409
 30
0.0
  0
LWPOLYLINE
  5
13c
100
AcDbEntity
  8
cut_inner
 62
1
100
AcDbPolyline
 90
2
 70
0
 10
100.930866
 20
282.364409
 30
0.0
 10
99.730864
 20
282.364409
 30
0.0
  0
SPLINE
  5
13d
100
AcDbEntity
  8
cut_inner
 62
1
100
AcDbSpline
 70
8
 71
3
 72
8
 73
4
 74
0
 40
0
 40
0
 40
0
 40
0
 40
1
 40
1
 40
1
 40
1
 10
100.930866
 20
281.164418
 30
0.0
 10
101.010433
 20
281.164417
 30
0.0
 10
101.086741
 20
281.196026
 30
0.0
 10
101.143002
 20
281.252289
 30
0.0
  0
SPLINE
  5
13e
100
AcDbEntity
  8
cut_inner
 62
1
100
AcDbSpline
 70
8
 71
3
 72
8
 73
4
 74
0
 40
0
 40
0
 40
0
 40
0
 40
1
 40
1
 40
1
 40
1
 10
101.143002
 20
281.252289
 30
0.0
 10
101.199264
 20
281.308553
 30
0.0
 10
101.230870
 20
281.384862
 30
0.0
 10
101.230867
 20
281.464429
 30
0.0
  0
SPLINE
  5
13f
100
AcDbEntity
  8
cut_inner
 62
1
100
AcDbSpline
 70
8
 71
3
 72
8
 73
4
 74
0
 40
0
 40
0
 40
0
 40
0
 40
1
 40
1
 40
1
 40
1
 10
93.643365
 20
268.613431
 30
0.0
 10
93.643365
 20
269.578048
 30
0.0
 10
93.128748
 20
270.469391
 30
0.0
 10
92.293365
 20
270.951700
 30
0.0
  0
SPLINE
  5
140
100
AcDbEntity
  8
cut_inner
 62
1
100
AcDbSpline
 70
8
 71
3
 72
8
 73
4
 74
0
 40
0
 40
0
 40
0
 40
0
 40
1
 40
1
 40
1
 40
1
 10
92.293365
 20
270.951700
 30
0.0
 10
91.457982
 20
271.434008
 30
0.0
 10
90.428748
 20
271.434008
 30
0.0
 10
89.593365
 20
270.951700
 30
0.0
  0
SPLINE
  5
141
100
AcDbEntity
  8
cut_inner
 62
1
100
AcDbSpline
 70
8
 71
3
 72
8
 73
4
 74
0
 40
0
 40
0
 40
0
 40
0
 40
1
 40
1
 40
1
 40
1
 10
89.593365
 20
270.951700
 30
0.0
 10
88.757982
 20
270.469391
 30
0.0
 10
88.243365
 20
269.578048
 30
0.0
 10
88.243365
 20
268.613431
 30
0.0
  0
SPLINE
  5
142
100
AcDbEntity
  8
cut_inner
 62
1
100
AcDbSpline
 70
8
 71
3
 72
8
 73
4
 74
0
 40
0
 40
0
 40
0
 40
0
 40
1
 40
1
 40
1
 40
1
 10
88.243365
 20
268.613431
 30
0.0
 10
88.243365
 20
267.648814
 30
0.0
 10
88.757982
 20
266.757471
 30
0.0
 10
89.593365
 20
266.275162
 30
0.0
  0
SPLINE
  5
143
100
AcDbEntity
  8
cut_inner
 62
1
100
AcDbSpline
 70
8
 71
3
 72
8
 73
4
 74
0
 40
0
 40
0
 40
0
 40
0
 40
1
 40
1
 40
1
 40
1
 10
89.593365
 20
266.275162
 30
0.0
 10
90.428748
 20
265.792854
 30
0.0
 10
91.457982
 20
265.792854
 30
0.0
 10
92.293365
 20
266.275162
 30
0.0
  0
SPLINE
  5
144
100
AcDbEntity
  8
cut_inner
 62
1
100
AcDbSpline
 70
8
 71
3
 72
8
 73
4
 74
0
 40
0
 40
0
 40
0
 40
0
 40
1
 40
1
 40
1
 40
1
 10
92.293365
 20
266.275162
 30
0.0
 10
93.128748
 20
266.757471
 30
0.0
 10
93.643365
 20
267.648814
 30
0.0
 10
93.643365
 20
268.613431
 30
0.0
  0
LWPOLYLINE
  5
145
100
AcDbEntity
  8
cut_inner
 62
1
100
AcDbPolyline
 90
2
 70
0
 10
101.230867
 20
281.464429
 30
0.0
 10
101.230867
 20
282.064424
 30
0.0
  0
LWPOLYLINE
  5
146
100
AcDbEntity
  8
cut_inner
 62
1
100
AcDbPolyline
 90
1
 70
1
 10
93.643365
 20
268.613431
 30
0.0
  0
SPLINE
  5
147
100
AcDbEntity
  8
cut_inner
 62
1
100
AcDbSpline
 70
8
 71
3
 72
8
 73
4
 74
0
 40
0
 40
0
 40
0
 40
0
 40
1
 40
1
 40
1
 40
1
 10
46.930866
 20
276.014409
 30
0.0
 10
46.930868
 20
276.147019
 30
0.0
 10
46.878191
 20
276.274198
 30
0.0
 10
46.784423
 20
276.367968
 30
0.0
  0
SPLINE
  5
148
100
AcDbEntity
  8
cut_inner
 62
1
100
AcDbSpline
 70
8
 71
3
 72
8
 73
4
 74
0
 40
0
 40
0
 40
0
 40
0
 40
1
 40
1
 40
1
 40
1
 10
46.784423
 20
276.367968
 30
0.0
 10
46.690654
 20
276.461738
 30
0.0
 10
46.563476
 20
276.514418
 30
0.0
 10
46.430867
 20
276.514418
 30
0.0
  0
LWPOLYLINE
  5
149
100
AcDbEntity
  8
cut_inner
 62
1
100
AcDbPolyline
 90
2
 70
0
 10
46.930866
 20
276.014409
 30
0.0
 10
46.930866
 20
272.114424
 30
0.0
  0
SPLINE
  5
14a
100
AcDbEntity
  8
cut_inner
 62
1
100
AcDbSpline
 70
8
 71
3
 72
8
 73
4
 74
0
 40
0
 40
0
 40
0
 40
0
 40
1
 40
1
 40
1
 40
1
 10
41.830866
 20
277.514411
 30
0.0
 10
41.830870
 20
276.962129
 30
0.0
 10
42.278584
 20
276.514418
 30
0.0
 10
42.830866
 20
276.514418
 30
0.0
  0
LWPOLYLINE
  5
14b
100
AcDbEntity
  8
cut_inner
 62
1
100
AcDbPolyline
 90
2
 70
0
 10
42.830866
 20
276.514418
 30
0.0
 10
46.430867
 20
276.514418
 30
0.0
  0
SPLINE
  5
14c
100
AcDbEntity
  8
cut_inner
 62
1
100
AcDbSpline
 70
8
 71
3
 72
8
 73
4
 74
0
 40
0
 40
0
 40
0
 40
0
 40
1
 40
1
 40
1
 40
1
 10
42.830866
 20
279.714422
 30
0.0
 10
42.278584
 20
279.714422
 30
0.0
 10
41.830870
 20
279.266711
 30
0.0
 10
41.830866
 20
278.714429
 30
0.0
  0
LWPOLYLINE
  5
14d
100
AcDbEntity
  8
cut_inner
 62
1
100
AcDbPolyline
 90
2
 70
0
 10
41.830866
 20
278.714429
 30
0.0
 10
41.830866
 20
277.514411
 30
0.0
  0
SPLINE
  5
14e
100
AcDbEntity
  8
cut_inner
 62
1
100
AcDbSpline
 70
8
 71
3
 72
8
 73
4
 74
0
 40
0
 40
0
 40
0
 40
0
 40
1
 40
1
 40
1
 40
1
 10
46.434203
 20
279.714422
 30
0.0
 10
46.697408
 20
279.714422
 30
0.0
 10
46.915547
 20
279.918474
 30
0.0
 10
46.933091
 20
280.181094
 30
0.0
  0
SPLINE
  5
14f
100
AcDbEntity
  8
cut_inner
 62
1
100
AcDbSpline
 70
8
 71
3
 72
8
 73
4
 74
0
 40
0
 40
0
 40
0
 40
0
 40
1
 40
1
 40
1
 40
1
 10
47.930866
 20
281.114411
 30
0.0
 10
47.404465
 20
281.114412
 30
0.0
 10
46.968192
 20
280.706323
 30
0.0
 10
46.933091
 20
280.181094
 30
0.0
  0
LWPOLYLINE
  5
150
100
AcDbEntity
  8
cut_inner
 62
1
100
AcDbPolyline
 90
2
 70
0
 10
46.434203
 20
279.714422
 30
0.0
 10
42.830866
 20
279.714422
 30
0.0
  0
SPLINE
  5
151
100
AcDbEntity
  8
cut_inner
 62
1
100
AcDbSpline
 70
8
 71
3
 72
8
 73
4
 74
0
 40
0
 40
0
 40
0
 40
0
 40
1
 40
1
 40
1
 40
1
 10
48.630866
 20
281.114411
 30
0.0
 10
48.763476
 20
281.114412
 30
0.0
 10
48.890654
 20
281.167092
 30
0.0
 10
48.984423
 20
281.260862
 30
0.0
  0
SPLINE
  5
152
100
AcDbEntity
  8
cut_inner
 62
1
100
AcDbSpline
 70
8
 71
3
 72
8
 73
4
 74
0
 40
0
 40
0
 40
0
 40
0
 40
1
 40
1
 40
1
 40
1
 10
48.984423
 20
281.260862
 30
0.0
 10
49.078191
 20
281.354632
 30
0.0
 10
49.130868
 20
281.481811
 30
0.0
 10
49.130865
 20
281.614421
 30
0.0
  0
LWPOLYLINE
  5
153
100
AcDbEntity
  8
cut_inner
 62
1
100
AcDbPolyline
 90
2
 70
0
 10
48.630866
 20
281.114411
 30
0.0
 10
47.930866
 20
281.114411
 30
0.0
  0
SPLINE
  5
154
100
AcDbEntity
  8
cut_inner
 62
1
100
AcDbSpline
 70
8
 71
3
 72
8
 73
4
 74
0
 40
0
 40
0
 40
0
 40
0
 40
1
 40
1
 40
1
 40
1
 10
50.130866
 20
284.514413
 30
0.0
 10
49.578584
 20
284.514413
 30
0.0
 10
49.130870
 20
284.066702
 30
0.0
 10
49.130865
 20
283.514420
 30
0.0
  0
LWPOLYLINE
  5
155
100
AcDbEntity
  8
cut_inner
 62
1
100
AcDbPolyline
 90
2
 70
0
 10
49.130865
 20
283.514420
 30
0.0
 10
49.130865
 20
281.614421
 30
0.0
  0
SPLINE
  5
156
100
AcDbEntity
  8
cut_inner
 62
1
100
AcDbSpline
 70
8
 71
3
 72
8
 73
4
 74
0
 40
0
 40
0
 40
0
 40
0
 40
1
 40
1
 40
1
 40
1
 10
53.530865
 20
283.514420
 30
0.0
 10
53.530861
 20
284.066702
 30
0.0
 10
53.083147
 20
284.514413
 30
0.0
 10
52.530864
 20
284.514413
 30
0.0
  0
LWPOLYLINE
  5
157
100
AcDbEntity
  8
cut_inner
 62
1
100
AcDbPolyline
 90
2
 70
0
 10
52.530864
 20
284.514413
 30
0.0
 10
50.130866
 20
284.514413
 30
0.0
  0
SPLINE
  5
158
100
AcDbEntity
  8
cut_inner
 62
1
100
AcDbSpline
 70
8
 71
3
 72
8
 73
4
 74
0
 40
0
 40
0
 40
0
 40
0
 40
1
 40
1
 40
1
 40
1
 10
53.530865
 20
281.614421
 30
0.0
 10
53.530863
 20
281.481811
 30
0.0
 10
53.583540
 20
281.354631
 30
0.0
 10
53.677309
 20
281.260861
 30
0.0
  0
SPLINE
  5
159
100
AcDbEntity
  8
cut_inner
 62
1
100
AcDbSpline
 70
8
 71
3
 72
8
 73
4
 74
0
 40
0
 40
0
 40
0
 40
0
 40
1
 40
1
 40
1
 40
1
 10
53.677309
 20
281.260861
 30
0.0
 10
53.771078
 20
281.167091
 30
0.0
 10
53.898257
 20
281.114411
 30
0.0
 10
54.030867
 20
281.114411
 30
0.0
  0
LWPOLYLINE
  5
15a
100
AcDbEntity
  8
cut_inner
 62
1
100
AcDbPolyline
 90
2
 70
0
 10
53.530865
 20
281.614421
 30
0.0
 10
53.530865
 20
283.514420
 30
0.0
  0
SPLINE
  5
15b
100
AcDbEntity
  8
cut_inner
 62
1
100
AcDbSpline
 70
8
 71
3
 72
8
 73
4
 74
0
 40
0
 40
0
 40
0
 40
0
 40
1
 40
1
 40
1
 40
1
 10
56.930867
 20
280.114419
 30
0.0
 10
56.930863
 20
280.666701
 30
0.0
 10
56.483148
 20
281.114412
 30
0.0
 10
55.930866
 20
281.114411
 30
0.0
  0
LWPOLYLINE
  5
15c
100
AcDbEntity
  8
cut_inner
 62
1
100
AcDbPolyline
 90
2
 70
0
 10
55.930866
 20
281.114411
 30
0.0
 10
54.030867
 20
281.114411
 30
0.0
  0
SPLINE
  5
15d
100
AcDbEntity
  8
cut_inner
 62
1
100
AcDbSpline
 70
8
 71
3
 72
8
 73
4
 74
0
 40
0
 40
0
 40
0
 40
0
 40
1
 40
1
 40
1
 40
1
 10
55.930866
 20
271.114431
 30
0.0
 10
56.483148
 20
271.114431
 30
0.0
 10
56.930863
 20
271.562142
 30
0.0
 10
56.930867
 20
272.114424
 30
0.0
  0
LWPOLYLINE
  5
15e
100
AcDbEntity
  8
cut_inner
 62
1
100
AcDbPolyline
 90
2
 70
0
 10
56.930867
 20
272.114424
 30
0.0
 10
56.930867
 20
280.114419
 30
0.0
  0
SPLINE
  5
15f
100
AcDbEntity
  8
cut_inner
 62
1
100
AcDbSpline
 70
8
 71
3
 72
8
 73
4
 74
0
 40
0
 40
0
 40
0
 40
0
 40
1
 40
1
 40
1
 40
1
 10
46.930866
 20
272.114424
 30
0.0
 10
46.930870
 20
271.562142
 30
0.0
 10
47.378584
 20
271.114431
 30
0.0
 10
47.930866
 20
271.114431
 30
0.0
  0
LWPOLYLINE
  5
160
100
AcDbEntity
  8
cut_inner
 62
1
100
AcDbPolyline
 90
2
 70
0
 10
47.930866
 20
271.114431
 30
0.0
 10
55.930866
 20
271.114431
 30
0.0
  0
SPLINE
  5
161
100
AcDbEntity
  8
cut_inner
 62
1
100
AcDbSpline
 70
8
 71
3
 72
8
 73
4
 74
0
 40
0
 40
0
 40
0
 40
0
 40
1
 40
1
 40
1
 40
1
 10
20.262916
 20
268.280453
 30
0.0
 10
20.110896
 20
268.368215
 30
0.0
 10
19.938452
 20
268.414416
 30
0.0
 10
19.762917
 20
268.414411
 30
0.0
  0
LWPOLYLINE
  5
162
100
AcDbEntity
  8
cut_inner
 62
1
100
AcDbPolyline
 90
2
 70
0
 10
20.262916
 20
268.280453
 30
0.0
 10
25.743302
 20
265.116354
 30
0.0
  0
SPLINE
  5
163
100
AcDbEntity
  8
cut_inner
 62
1
100
AcDbSpline
 70
8
 71
3
 72
8
 73
4
 74
0
 40
0
 40
0
 40
0
 40
0
 40
1
 40
1
 40
1
 40
1
 10
9.430867
 20
272.414409
 30
0.0
 10
9.430868
 20
270.205271
 30
0.0
 10
11.221729
 20
268.414411
 30
0.0
 10
13.430866
 20
268.414411
 30
0.0
  0
LWPOLYLINE
  5
164
100
AcDbEntity
  8
cut_inner
 62
1
100
AcDbPolyline
 90
2
 70
0
 10
13.430866
 20
268.414411
 30
0.0
 10
19.762917
 20
268.414411
 30
0.0
  0
SPLINE
  5
165
100
AcDbEntity
  8
cut_inner
 62
1
100
AcDbSpline
 70
8
 71
3
 72
8
 73
4
 74
0
 40
0
 40
0
 40
0
 40
0
 40
1
 40
1
 40
1
 40
1
 10
13.430866
 20
284.414427
 30
0.0
 10
11.221729
 20
284.414427
 30
0.0
 10
9.430868
 20
282.623568
 30
0.0
 10
9.430867
 20
280.414430
 30
0.0
  0
LWPOLYLINE
  5
166
100
AcDbEntity
  8
cut_inner
 62
1
100
AcDbPolyline
 90
2
 70
0
 10
9.430867
 20
280.414430
 30
0.0
 10
9.430867
 20
272.414409
 30
0.0
  0
SPLINE
  5
167
100
AcDbEntity
  8
cut_inner
 62
1
100
AcDbSpline
 70
8
 71
3
 72
8
 73
4
 74
0
 40
0
 40
0
 40
0
 40
0
 40
1
 40
1
 40
1
 40
1
 10
24.030866
 20
280.414430
 30
0.0
 10
24.030864
 20
282.623568
 30
0.0
 10
22.240004
 20
284.414427
 30
0.0
 10
20.030866
 20
284.414427
 30
0.0
  0
LWPOLYLINE
  5
168
100
AcDbEntity
  8
cut_inner
 62
1
100
AcDbPolyline
 90
2
 70
0
 10
20.030866
 20
284.414427
 30
0.0
 10
13.430866
 20
284.414427
 30
0.0
  0
SPLINE
  5
169
100
AcDbEntity
  8
cut_inner
 62
1
100
AcDbSpline
 70
8
 71
3
 72
8
 73
4
 74
0
 40
0
 40
0
 40
0
 40
0
 40
1
 40
1
 40
1
 40
1
 10
24.030866
 20
275.514426
 30
0.0
 10
24.030870
 20
274.962144
 30
0.0
 10
24.478584
 20
274.514433
 30
0.0
 10
25.030867
 20
274.514433
 30
0.0
  0
LWPOLYLINE
  5
16a
100
AcDbEntity
  8
cut_inner
 62
1
100
AcDbPolyline
 90
2
 70
0
 10
24.030866
 20
275.514426
 30
0.0
 10
24.030866
 20
280.414430
 30
0.0
  0
SPLINE
  5
16b
100
AcDbEntity
  8
cut_inner
 62
1
100
AcDbSpline
 70
8
 71
3
 72
8
 73
4
 74
0
 40
0
 40
0
 40
0
 40
0
 40
1
 40
1
 40
1
 40
1
 10
40.905478
 20
273.014431
 30
0.0
 10
40.369580
 20
273.942634
 30
0.0
 10
39.379200
 20
274.514432
 30
0.0
 10
38.307404
 20
274.514433
 30
0.0
  0
LWPOLYLINE
  5
16c
100
AcDbEntity
  8
cut_inner
 62
1
100
AcDbPolyline
 90
2
 70
0
 10
38.307404
 20
274.514433
 30
0.0
 10
25.030867
 20
274.514433
 30
0.0
  0
SPLINE
  5
16d
100
AcDbEntity
  8
cut_inner
 62
1
100
AcDbSpline
 70
8
 71
3
 72
8
 73
4
 74
0
 40
0
 40
0
 40
0
 40
0
 40
1
 40
1
 40
1
 40
1
 10
43.139453
 20
268.341228
 30
0.0
 10
43.139449
 20
268.867829
 30
0.0
 10
43.000830
 20
269.385153
 30
0.0
 10
42.737529
 20
269.841203
 30
0.0
  0
LWPOLYLINE
  5
16e
100
AcDbEntity
  8
cut_inner
 62
1
100
AcDbPolyline
 90
2
 70
0
 10
42.737529
 20
269.841203
 30
0.0
 10
40.905478
 20
273.014431
 30
0.0
  0
SPLINE
  5
16f
100
AcDbEntity
  8
cut_inner
 62
1
100
AcDbSpline
 70
8
 71
3
 72
8
 73
4
 74
0
 40
0
 40
0
 40
0
 40
0
 40
1
 40
1
 40
1
 40
1
 10
42.139455
 20
264.714425
 30
0.0
 10
42.691736
 20
264.714426
 30
0.0
 10
43.139449
 20
265.162137
 30
0.0
 10
43.139453
 20
265.714418
 30
0.0
  0
LWPOLYLINE
  5
170
100
AcDbEntity
  8
cut_inner
 62
1
100
AcDbPolyline
 90
2
 70
0
 10
43.139453
 20
265.714418
 30
0.0
 10
43.139453
 20
268.341228
 30
0.0
  0
SPLINE
  5
171
100
AcDbEntity
  8
cut_inner
 62
1
100
AcDbSpline
 70
8
 71
3
 72
8
 73
4
 74
0
 40
0
 40
0
 40
0
 40
0
 40
1
 40
1
 40
1
 40
1
 10
25.743302
 20
265.116354
 30
0.0
 10
26.199359
 20
264.853047
 30
0.0
 10
26.716692
 20
264.714427
 30
0.0
 10
27.243302
 20
264.714425
 30
0.0
  0
LWPOLYLINE
  5
172
100
AcDbEntity
  8
cut_inner
 62
1
100
AcDbPolyline
 90
2
 70
0
 10
27.243302
 20
264.714425
 30
0.0
 10
42.139455
 20
264.714425
 30
0.0
  0
SPLINE
  5
173
100
AcDbEntity
  8
cut_inner
 62
1
100
AcDbSpline
 70
8
 71
3
 72
8
 73
4
 74
0
 40
0
 40
0
 40
0
 40
0
 40
1
 40
1
 40
1
 40
1
 10
31.130867
 20
275.714424
 30
0.0
 10
31.263477
 20
275.714425
 30
0.0
 10
31.390655
 20
275.767104
 30
0.0
 10
31.484423
 20
275.860875
 30
0.0
  0
SPLINE
  5
174
100
AcDbEntity
  8
cut_inner
 62
1
100
AcDbSpline
 70
8
 71
3
 72
8
 73
4
 74
0
 40
0
 40
0
 40
0
 40
0
 40
1
 40
1
 40
1
 40
1
 10
31.484423
 20
275.860875
 30
0.0
 10
31.578191
 20
275.954645
 30
0.0
 10
31.630869
 20
276.081824
 30
0.0
 10
31.630866
 20
276.214434
 30
0.0
  0
LWPOLYLINE
  5
175
100
AcDbEntity
  8
cut_inner
 62
1
100
AcDbPolyline
 90
2
 70
0
 10
31.630866
 20
276.214434
 30
0.0
 10
31.630866
 20
277.214427
 30
0.0
  0
SPLINE
  5
176
100
AcDbEntity
  8
cut_inner
 62
1
100
AcDbSpline
 70
8
 71
3
 72
8
 73
4
 74
0
 40
0
 40
0
 40
0
 40
0
 40
1
 40
1
 40
1
 40
1
 10
29.630867
 20
276.214434
 30
0.0
 10
29.630865
 20
276.081824
 30
0.0
 10
29.683542
 20
275.954645
 30
0.0
 10
29.777310
 20
275.860875
 30
0.0
  0
SPLINE
  5
177
100
AcDbEntity
  8
cut_inner
 62
1
100
AcDbSpline
 70
8
 71
3
 72
8
 73
4
 74
0
 40
0
 40
0
 40
0
 40
0
 40
1
 40
1
 40
1
 40
1
 10
29.777310
 20
275.860875
 30
0.0
 10
29.871079
 20
275.767104
 30
0.0
 10
29.998257
 20
275.714425
 30
0.0
 10
30.130866
 20
275.714424
 30
0.0
  0
LWPOLYLINE
  5
178
100
AcDbEntity
  8
cut_inner
 62
1
100
AcDbPolyline
 90
2
 70
0
 10
30.130866
 20
275.714424
 30
0.0
 10
31.130867
 20
275.714424
 30
0.0
  0
SPLINE
  5
179
100
AcDbEntity
  8
cut_inner
 62
1
100
AcDbSpline
 70
8
 71
3
 72
8
 73
4
 74
0
 40
0
 40
0
 40
0
 40
0
 40
1
 40
1
 40
1
 40
1
 10
30.130866
 20
277.714410
 30
0.0
 10
29.854731
 20
277.714409
 30
0.0
 10
29.630877
 20
277.490562
 30
0.0
 10
29.630867
 20
277.214427
 30
0.0
  0
LWPOLYLINE
  5
17a
100
AcDbEntity
  8
cut_inner
 62
1
100
AcDbPolyline
 90
2
 70
0
 10
29.630867
 20
277.214427
 30
0.0
 10
29.630867
 20
276.214434
 30
0.0
  0
SPLINE
  5
17b
100
AcDbEntity
  8
cut_inner
 62
1
100
AcDbSpline
 70
8
 71
3
 72
8
 73
4
 74
0
 40
0
 40
0
 40
0
 40
0
 40
1
 40
1
 40
1
 40
1
 10
31.630866
 20
277.214427
 30
0.0
 10
31.630857
 20
277.490562
 30
0.0
 10
31.407002
 20
277.714409
 30
0.0
 10
31.130867
 20
277.714410
 30
0.0
  0
SPLINE
  5
17c
100
AcDbEntity
  8
cut_inner
 62
1
100
AcDbSpline
 70
8
 71
3
 72
8
 73
4
 74
0
 40
0
 40
0
 40
0
 40
0
 40
1
 40
1
 40
1
 40
1
 10
100.480865
 20
276.614431
 30
0.0
 10
100.480865
 20
276.989560
 30
0.0
 10
100.280736
 20
277.336193
 30
0.0
 10
99.955865
 20
277.523758
 30
0.0
  0
SPLINE
  5
17d
100
AcDbEntity
  8
cut_inner
 62
1
100
AcDbSpline
 70
8
 71
3
 72
8
 73
4
 74
0
 40
0
 40
0
 40
0
 40
0
 40
1
 40
1
 40
1
 40
1
 10
99.955865
 20
277.523758
 30
0.0
 10
99.630994
 20
277.711322
 30
0.0
 10
99.230736
 20
277.711322
 30
0.0
 10
98.905865
 20
277.523758
 30
0.0
  0
SPLINE
  5
17e
100
AcDbEntity
  8
cut_inner
 62
1
100
AcDbSpline
 70
8
 71
3
 72
8
 73
4
 74
0
 40
0
 40
0
 40
0
 40
0
 40
1
 40
1
 40
1
 40
1
 10
98.905865
 20
277.523758
 30
0.0
 10
98.580994
 20
277.336193
 30
0.0
 10
98.380865
 20
276.989560
 30
0.0
 10
98.380865
 20
276.614431
 30
0.0
  0
SPLINE
  5
17f
100
AcDbEntity
  8
cut_inner
 62
1
100
AcDbSpline
 70
8
 71
3
 72
8
 73
4
 74
0
 40
0
 40
0
 40
0
 40
0
 40
1
 40
1
 40
1
 40
1
 10
98.380865
 20
276.614431
 30
0.0
 10
98.380865
 20
276.239302
 30
0.0
 10
98.580994
 20
275.892669
 30
0.0
 10
98.905865
 20
275.705104
 30
0.0
  0
SPLINE
  5
180
100
AcDbEntity
  8
cut_inner
 62
1
100
AcDbSpline
 70
8
 71
3
 72
8
 73
4
 74
0
 40
0
 40
0
 40
0
 40
0
 40
1
 40
1
 40
1
 40
1
 10
98.905865
 20
275.705104
 30
0.0
 10
99.230736
 20
275.517540
 30
0.0
 10
99.630994
 20
275.517540
 30
0.0
 10
99.955865
 20
275.705104
 30
0.0
  0
SPLINE
  5
181
100
AcDbEntity
  8
cut_inner
 62
1
100
AcDbSpline
 70
8
 71
3
 72
8
 73
4
 74
0
 40
0
 40
0
 40
0
 40
0
 40
1
 40
1
 40
1
 40
1
 10
99.955865
 20
275.705104
 30
0.0
 10
100.280736
 20
275.892669
 30
0.0
 10
100.480865
 20
276.239302
 30
0.0
 10
100.480865
 20
276.614431
 30
0.0
  0
LWPOLYLINE
  5
182
100
AcDbEntity
  8
cut_inner
 62
1
100
AcDbPolyline
 90
2
 70
0
 10
31.130867
 20
277.714410
 30
0.0
 10
30.130866
 20
277.714410
 30
0.0
  0
SPLINE
  5
183
100
AcDbEntity
  8
cut_inner
 62
1
100
AcDbSpline
 70
8
 71
3
 72
8
 73
4
 74
0
 40
0
 40
0
 40
0
 40
0
 40
1
 40
1
 40
1
 40
1
 10
28.280868
 20
276.614431
 30
0.0
 10
28.280868
 20
276.989560
 30
0.0
 10
28.080739
 20
277.336193
 30
0.0
 10
27.755868
 20
277.523758
 30
0.0
  0
SPLINE
  5
184
100
AcDbEntity
  8
cut_inner
 62
1
100
AcDbSpline
 70
8
 71
3
 72
8
 73
4
 74
0
 40
0
 40
0
 40
0
 40
0
 40
1
 40
1
 40
1
 40
1
 10
27.755868
 20
277.523758
 30
0.0
 10
27.430997
 20
277.711322
 30
0.0
 10
27.030739
 20
277.711322
 30
0.0
 10
26.705868
 20
277.523758
 30
0.0
  0
SPLINE
  5
185
100
AcDbEntity
  8
cut_inner
 62
1
100
AcDbSpline
 70
8
 71
3
 72
8
 73
4
 74
0
 40
0
 40
0
 40
0
 40
0
 40
1
 40
1
 40
1
 40
1
 10
26.705868
 20
277.523758
 30
0.0
 10
26.380996
 20
277.336193
 30
0.0
 10
26.180867
 20
276.989560
 30
0.0
 10
26.180867
 20
276.614431
 30
0.0
  0
SPLINE
  5
186
100
AcDbEntity
  8
cut_inner
 62
1
100
AcDbSpline
 70
8
 71
3
 72
8
 73
4
 74
0
 40
0
 40
0
 40
0
 40
0
 40
1
 40
1
 40
1
 40
1
 10
26.180867
 20
276.614431
 30
0.0
 10
26.180867
 20
276.239302
 30
0.0
 10
26.380996
 20
275.892669
 30
0.0
 10
26.705868
 20
275.705104
 30
0.0
  0
SPLINE
  5
187
100
AcDbEntity
  8
cut_inner
 62
1
100
AcDbSpline
 70
8
 71
3
 72
8
 73
4
 74
0
 40
0
 40
0
 40
0
 40
0
 40
1
 40
1
 40
1
 40
1
 10
26.705868
 20
275.705104
 30
0.0
 10
27.030739
 20
275.517540
 30
0.0
 10
27.430997
 20
275.517540
 30
0.0
 10
27.755868
 20
275.705104
 30
0.0
  0
SPLINE
  5
188
100
AcDbEntity
  8
cut_inner
 62
1
100
AcDbSpline
 70
8
 71
3
 72
8
 73
4
 74
0
 40
0
 40
0
 40
0
 40
0
 40
1
 40
1
 40
1
 40
1
 10
27.755868
 20
275.705104
 30
0.0
 10
28.080739
 20
275.892669
 30
0.0
 10
28.280868
 20
276.239302
 30
0.0
 10
28.280868
 20
276.614431
 30
0.0
  0
LWPOLYLINE
  5
189
100
AcDbEntity
  8
cut_inner
 62
1
100
AcDbPolyline
 90
1
 70
1
 10
100.480865
 20
276.614431
 30
0.0
  0
LWPOLYLINE
  5
18a
100
AcDbEntity
  8
cut_inner
 62
1
100
AcDbPolyline
 90
1
 70
1
 10
28.280868
 20
276.614431
 30
0.0
  0
SPLINE
  5
18b
100
AcDbEntity
  8
cut_inner
 62
1
100
AcDbSpline
 70
8
 71
3
 72
8
 73
4
 74
0
 40
0
 40
0
 40
0
 40
0
 40
1
 40
1
 40
1
 40
1
 10
69.730866
 20
282.501172
 30
0.0
 10
69.730863
 20
282.143903
 30
0.0
 10
69.921462
 20
281.813772
 30
0.0
 10
70.230865
 20
281.635138
 30
0.0
  0
LWPOLYLINE
  5
18c
100
AcDbEntity
  8
cut_inner
 62
1
100
AcDbPolyline
 90
2
 70
0
 10
69.730866
 20
282.501172
 30
0.0
 10
69.730866
 20
283.414434
 30
0.0
  0
SPLINE
  5
18d
100
AcDbEntity
  8
cut_inner
 62
1
100
AcDbSpline
 70
8
 71
3
 72
8
 73
4
 74
0
 40
0
 40
0
 40
0
 40
0
 40
1
 40
1
 40
1
 40
1
 10
73.498816
 20
279.748394
 30
0.0
 10
73.650834
 20
279.660622
 30
0.0
 10
73.823278
 20
279.614412
 30
0.0
 10
73.998815
 20
279.614409
 30
0.0
  0
LWPOLYLINE
  5
18e
100
AcDbEntity
  8
cut_inner
 62
1
100
AcDbPolyline
 90
2
 70
0
 10
73.498816
 20
279.748394
 30
0.0
 10
70.230865
 20
281.635138
 30
0.0
  0
SPLINE
  5
18f
100
AcDbEntity
  8
cut_inner
 62
1
100
AcDbSpline
 70
8
 71
3
 72
8
 73
4
 74
0
 40
0
 40
0
 40
0
 40
0
 40
1
 40
1
 40
1
 40
1
 10
96.730865
 20
278.614416
 30
0.0
 10
96.730861
 20
279.166699
 30
0.0
 10
96.283146
 20
279.614409
 30
0.0
 10
95.730864
 20
279.614409
 30
0.0
  0
LWPOLYLINE
  5
190
100
AcDbEntity
  8
cut_inner
 62
1
100
AcDbPolyline
 90
2
 70
0
 10
95.730864
 20
279.614409
 30
0.0
 10
73.998815
 20
279.614409
 30
0.0
  0
SPLINE
  5
191
100
AcDbEntity
  8
cut_inner
 62
1
100
AcDbSpline
 70
8
 71
3
 72
8
 73
4
 74
0
 40
0
 40
0
 40
0
 40
0
 40
1
 40
1
 40
1
 40
1
 10
95.730864
 20
272.614434
 30
0.0
 10
96.283146
 20
272.614433
 30
0.0
 10
96.730861
 20
273.062144
 30
0.0
 10
96.730865
 20
273.614426
 30
0.0
  0
LWPOLYLINE
  5
192
100
AcDbEntity
  8
cut_inner
 62
1
100
AcDbPolyline
 90
2
 70
0
 10
96.730865
 20
273.614426
 30
0.0
 10
96.730865
 20
278.614416
 30
0.0
  0
SPLINE
  5
193
100
AcDbEntity
  8
cut_inner
 62
1
100
AcDbSpline
 70
8
 71
3
 72
8
 73
4
 74
0
 40
0
 40
0
 40
0
 40
0
 40
1
 40
1
 40
1
 40
1
 10
73.998815
 20
272.614434
 30
0.0
 10
73.823278
 20
272.614430
 30
0.0
 10
73.650834
 20
272.568220
 30
0.0
 10
73.498816
 20
272.480449
 30
0.0
  0
LWPOLYLINE
  5
194
100
AcDbEntity
  8
cut_inner
 62
1
100
AcDbPolyline
 90
2
 70
0
 10
73.998815
 20
272.614434
 30
0.0
 10
95.730864
 20
272.614434
 30
0.0
  0
SPLINE
  5
195
100
AcDbEntity
  8
cut_inner
 62
1
100
AcDbSpline
 70
8
 71
3
 72
8
 73
4
 74
0
 40
0
 40
0
 40
0
 40
0
 40
1
 40
1
 40
1
 40
1
 10
70.188085
 20
270.568993
 30
0.0
 10
69.941972
 20
270.426901
 30
0.0
 10
69.767941
 20
270.186805
 30
0.0
 10
69.709475
 20
269.908699
 30
0.0
  0
SPLINE
  5
196
100
AcDbEntity
  8
cut_inner
 62
1
100
AcDbSpline
 70
8
 71
3
 72
8
 73
4
 74
0
 40
0
 40
0
 40
0
 40
0
 40
1
 40
1
 40
1
 40
1
 10
68.730865
 20
269.114420
 30
0.0
 10
69.203863
 20
269.114420
 30
0.0
 10
69.612169
 20
269.445818
 30
0.0
 10
69.709475
 20
269.908699
 30
0.0
  0
LWPOLYLINE
  5
197
100
AcDbEntity
  8
cut_inner
 62
1
100
AcDbPolyline
 90
2
 70
0
 10
70.188085
 20
270.568993
 30
0.0
 10
73.498816
 20
272.480449
 30
0.0
  0
SPLINE
  5
198
100
AcDbEntity
  8
cut_inner
 62
1
100
AcDbSpline
 70
8
 71
3
 72
8
 73
4
 74
0
 40
0
 40
0
 40
0
 40
0
 40
1
 40
1
 40
1
 40
1
 10
61.930865
 20
270.114412
 30
0.0
 10
61.930869
 20
269.562130
 30
0.0
 10
62.378583
 20
269.114419
 30
0.0
 10
62.930865
 20
269.114420
 30
0.0
  0
LWPOLYLINE
  5
199
100
AcDbEntity
  8
cut_inner
 62
1
100
AcDbPolyline
 90
2
 70
0
 10
62.930865
 20
269.114420
 30
0.0
 10
68.730865
 20
269.114420
 30
0.0
  0
SPLINE
  5
19a
100
AcDbEntity
  8
cut_inner
 62
1
100
AcDbSpline
 70
8
 71
3
 72
8
 73
4
 74
0
 40
0
 40
0
 40
0
 40
0
 40
1
 40
1
 40
1
 40
1
 10
62.930865
 20
284.414427
 30
0.0
 10
62.378583
 20
284.414427
 30
0.0
 10
61.930869
 20
283.966716
 30
0.0
 10
61.930865
 20
283.414434
 30
0.0
  0
LWPOLYLINE
  5
19b
100
AcDbEntity
  8
cut_inner
 62
1
100
AcDbPolyline
 90
2
 70
0
 10
61.930865
 20
283.414434
 30
0.0
 10
61.930865
 20
270.114412
 30
0.0
  0
SPLINE
  5
19c
100
AcDbEntity
  8
cut_inner
 62
1
100
AcDbSpline
 70
8
 71
3
 72
8
 73
4
 74
0
 40
0
 40
0
 40
0
 40
0
 40
1
 40
1
 40
1
 40
1
 10
69.730866
 20
283.414434
 30
0.0
 10
69.730862
 20
283.966716
 30
0.0
 10
69.283148
 20
284.414427
 30
0.0
 10
68.730865
 20
284.414427
 30
0.0
  0
SPLINE
  5
19d
100
AcDbEntity
  8
cut_inner
 62
1
100
AcDbSpline
 70
8
 71
3
 72
8
 73
4
 74
0
 40
0
 40
0
 40
0
 40
0
 40
1
 40
1
 40
1
 40
1
 10
9.930866
 20
288.114413
 30
0.0
 10
9.931316
 20
288.471979
 30
0.0
 10
9.740816
 20
288.802576
 30
0.0
 10
9.431230
 20
288.981489
 30
0.0
  0
SPLINE
  5
19e
100
AcDbEntity
  8
cut_inner
 62
1
100
AcDbSpline
 70
8
 71
3
 72
8
 73
4
 74
0
 40
0
 40
0
 40
0
 40
0
 40
1
 40
1
 40
1
 40
1
 10
9.431230
 20
288.981489
 30
0.0
 10
9.121644
 20
289.160402
 30
0.0
 10
8.740088
 20
289.160402
 30
0.0
 10
8.430502
 20
288.981489
 30
0.0
  0
SPLINE
  5
19f
100
AcDbEntity
  8
cut_inner
 62
1
100
AcDbSpline
 70
8
 71
3
 72
8
 73
4
 74
0
 40
0
 40
0
 40
0
 40
0
 40
1
 40
1
 40
1
 40
1
 10
8.430502
 20
288.981489
 30
0.0
 10
8.120917
 20
288.802576
 30
0.0
 10
7.930416
 20
288.471979
 30
0.0
 10
7.930867
 20
288.114413
 30
0.0
  0
SPLINE
  5
1a0
100
AcDbEntity
  8
cut_inner
 62
1
100
AcDbSpline
 70
8
 71
3
 72
8
 73
4
 74
0
 40
0
 40
0
 40
0
 40
0
 40
1
 40
1
 40
1
 40
1
 10
7.930867
 20
288.114413
 30
0.0
 10
7.930416
 20
287.756848
 30
0.0
 10
8.120917
 20
287.426251
 30
0.0
 10
8.430502
 20
287.247338
 30
0.0
  0
SPLINE
  5
1a1
100
AcDbEntity
  8
cut_inner
 62
1
100
AcDbSpline
 70
8
 71
3
 72
8
 73
4
 74
0
 40
0
 40
0
 40
0
 40
0
 40
1
 40
1
 40
1
 40
1
 10
8.430502
 20
287.247338
 30
0.0
 10
8.740088
 20
287.068425
 30
0.0
 10
9.121644
 20
287.068425
 30
0.0
 10
9.431230
 20
287.247338
 30
0.0
  0
SPLINE
  5
1a2
100
AcDbEntity
  8
cut_inner
 62
1
100
AcDbSpline
 70
8
 71
3
 72
8
 73
4
 74
0
 40
0
 40
0
 40
0
 40
0
 40
1
 40
1
 40
1
 40
1
 10
9.431230
 20
287.247338
 30
0.0
 10
9.740816
 20
287.426251
 30
0.0
 10
9.931316
 20
287.756848
 30
0.0
 10
9.930866
 20
288.114413
 30
0.0
  0
LWPOLYLINE
  5
1a3
100
AcDbEntity
  8
cut_inner
 62
1
100
AcDbPolyline
 90
2
 70
0
 10
68.730865
 20
284.414427
 30
0.0
 10
62.930865
 20
284.414427
 30
0.0
  0
SPLINE
  5
1a4
100
AcDbEntity
  8
cut_inner
 62
1
100
AcDbSpline
 70
8
 71
3
 72
8
 73
4
 74
0
 40
0
 40
0
 40
0
 40
0
 40
1
 40
1
 40
1
 40
1
 10
9.930866
 20
264.114430
 30
0.0
 10
9.931316
 20
264.471995
 30
0.0
 10
9.740816
 20
264.802592
 30
0.0
 10
9.431230
 20
264.981505
 30
0.0
  0
SPLINE
  5
1a5
100
AcDbEntity
  8
cut_inner
 62
1
100
AcDbSpline
 70
8
 71
3
 72
8
 73
4
 74
0
 40
0
 40
0
 40
0
 40
0
 40
1
 40
1
 40
1
 40
1
 10
9.431230
 20
264.981505
 30
0.0
 10
9.121644
 20
265.160418
 30
0.0
 10
8.740088
 20
265.160418
 30
0.0
 10
8.430502
 20
264.981505
 30
0.0
  0
SPLINE
  5
1a6
100
AcDbEntity
  8
cut_inner
 62
1
100
AcDbSpline
 70
8
 71
3
 72
8
 73
4
 74
0
 40
0
 40
0
 40
0
 40
0
 40
1
 40
1
 40
1
 40
1
 10
8.430502
 20
264.981505
 30
0.0
 10
8.120917
 20
264.802592
 30
0.0
 10
7.930416
 20
264.471995
 30
0.0
 10
7.930867
 20
264.114430
 30
0.0
  0
SPLINE
  5
1a7
100
AcDbEntity
  8
cut_inner
 62
1
100
AcDbSpline
 70
8
 71
3
 72
8
 73
4
 74
0
 40
0
 40
0
 40
0
 40
0
 40
1
 40
1
 40
1
 40
1
 10
7.930867
 20
264.114430
 30
0.0
 10
7.930416
 20
263.756864
 30
0.0
 10
8.120917
 20
263.426267
 30
0.0
 10
8.430502
 20
263.247354
 30
0.0
  0
SPLINE
  5
1a8
100
AcDbEntity
  8
cut_inner
 62
1
100
AcDbSpline
 70
8
 71
3
 72
8
 73
4
 74
0
 40
0
 40
0
 40
0
 40
0
 40
1
 40
1
 40
1
 40
1
 10
8.430502
 20
263.247354
 30
0.0
 10
8.740088
 20
263.068441
 30
0.0
 10
9.121644
 20
263.068441
 30
0.0
 10
9.431230
 20
263.247354
 30
0.0
  0
SPLINE
  5
1a9
100
AcDbEntity
  8
cut_inner
 62
1
100
AcDbSpline
 70
8
 71
3
 72
8
 73
4
 74
0
 40
0
 40
0
 40
0
 40
0
 40
1
 40
1
 40
1
 40
1
 10
9.431230
 20
263.247354
 30
0.0
 10
9.740816
 20
263.426267
 30
0.0
 10
9.931316
 20
263.756864
 30
0.0
 10
9.930866
 20
264.114430
 30
0.0
  0
LWPOLYLINE
  5
1aa
100
AcDbEntity
  8
cut_inner
 62
1
100
AcDbPolyline
 90
1
 70
1
 10
9.930866
 20
288.114413
 30
0.0
  0
SPLINE
  5
1ab
100
AcDbEntity
  8
cut_inner
 62
1
100
AcDbSpline
 70
8
 71
3
 72
8
 73
4
 74
0
 40
0
 40
0
 40
0
 40
0
 40
1
 40
1
 40
1
 40
1
 10
103.930865
 20
264.114430
 30
0.0
 10
103.931316
 20
264.471995
 30
0.0
 10
103.740816
 20
264.802592
 30
0.0
 10
103.431230
 20
264.981505
 30
0.0
  0
SPLINE
  5
1ac
100
AcDbEntity
  8
cut_inner
 62
1
100
AcDbSpline
 70
8
 71
3
 72
8
 73
4
 74
0
 40
0
 40
0
 40
0
 40
0
 40
1
 40
1
 40
1
 40
1
 10
103.431230
 20
264.981505
 30
0.0
 10
103.121644
 20
265.160418
 30
0.0
 10
102.740088
 20
265.160418
 30
0.0
 10
102.430502
 20
264.981505
 30
0.0
  0
SPLINE
  5
1ad
100
AcDbEntity
  8
cut_inner
 62
1
100
AcDbSpline
 70
8
 71
3
 72
8
 73
4
 74
0
 40
0
 40
0
 40
0
 40
0
 40
1
 40
1
 40
1
 40
1
 10
102.430502
 20
264.981505
 30
0.0
 10
102.120916
 20
264.802592
 30
0.0
 10
101.930416
 20
264.471995
 30
0.0
 10
101.930867
 20
264.114430
 30
0.0
  0
SPLINE
  5
1ae
100
AcDbEntity
  8
cut_inner
 62
1
100
AcDbSpline
 70
8
 71
3
 72
8
 73
4
 74
0
 40
0
 40
0
 40
0
 40
0
 40
1
 40
1
 40
1
 40
1
 10
101.930867
 20
264.114430
 30
0.0
 10
101.930416
 20
263.756864
 30
0.0
 10
102.120916
 20
263.426267
 30
0.0
 10
102.430502
 20
263.247354
 30
0.0
  0
SPLINE
  5
1af
100
AcDbEntity
  8
cut_inner
 62
1
100
AcDbSpline
 70
8
 71
3
 72
8
 73
4
 74
0
 40
0
 40
0
 40
0
 40
0
 40
1
 40
1
 40
1
 40
1
 10
102.430502
 20
263.247354
 30
0.0
 10
102.740088
 20
263.068441
 30
0.0
 10
103.121644
 20
263.068441
 30
0.0
 10
103.431230
 20
263.247354
 30
0.0
  0
SPLINE
  5
1b0
100
AcDbEntity
  8
cut_inner
 62
1
100
AcDbSpline
 70
8
 71
3
 72
8
 73
4
 74
0
 40
0
 40
0
 40
0
 40
0
 40
1
 40
1
 40
1
 40
1
 10
103.431230
 20
263.247354
 30
0.0
 10
103.740816
 20
263.426267
 30
0.0
 10
103.931316
 20
263.756864
 30
0.0
 10
103.930865
 20
264.114430
 30
0.0
  0
LWPOLYLINE
  5
1b1
100
AcDbEntity
  8
cut_inner
 62
1
100
AcDbPolyline
 90
1
 70
1
 10
9.930866
 20
264.114430
 30
0.0
  0
LWPOLYLINE
  5
1b2
100
AcDbEntity
  8
cut_inner
 62
1
100
AcDbPolyline
 90
1
 70
1
 10
103.930865
 20
264.114430
 30
0.0
  0
ENDSEC
  0
SECTION
  2
OBJECTS
  0
DICTIONARY
  5
C
330
0
100
AcDbDictionary
  3
ACAD_GROUP
350
D
  3
ACAD_MLINESTYLE
350
17
  0
DICTIONARY
  5
D
330
C
100
AcDbDictionary
  0
DICTIONARY
  5
1A
330
C
100
AcDbDictionary
  0
DICTIONARY
  5
17
330
C
100
AcDbDictionary
  3
STANDARD
350
18
  0
DICTIONARY
  5
19
330
C
100
AcDbDictionary
  0
ENDSEC
  0
EOF
