  0
SECTION
  2
HEADER
  9
$ACADVER
  1
AC1014
  9
$HANDSEED
  5
FFFF
  9
$MEASUREMENT
 70
     1
  0
ENDSEC
  0
SECTION
  2
TABLES
  0
TABLE
  2
VPORT
  5
8
330
0
100
AcDbSymbolTable
 70
     4
  0
VPORT
  5
2E
330
8
100
AcDbSymbolTableRecord
100
AcDbViewportTableRecord
  2
*ACTIVE
 70
     0
 10
0.0
 20
0.0
 11
1.0
 21
1.0
 12
210.0
 22
148.5
 13
0.0
 23
0.0
 14
10.0
 24
10.0
 15
10.0
 25
10.0
 16
0.0
 26
0.0
 36
1.0
 17
0.0
 27
0.0
 37
0.0
 40
341.0
 41
1.24
 42
50.0
 43
0.0
 44
0.0
 50
0.0
 51
0.0
 71
     0
 72
   100
 73
     1
 74
     3
 75
     0
 76
     0
 77
     0
 78
     0
  0
ENDTAB
  0
TABLE
  2
LTYPE
  5
5
330
0
100
AcDbSymbolTable
 70
     1
  0
LTYPE
  5
14
330
5
100
AcDbSymbolTableRecord
100
AcDbLinetypeTableRecord
  2
BYBLOCK
 70
     0
  3

 72
    65
 73
     0
 40
0.0
  0
LTYPE
  5
15
330
5
100
AcDbSymbolTableRecord
100
AcDbLinetypeTableRecord
  2
BYLAYER
 70
     0
  3

 72
    65
 73
     0
 40
0.0
  0
LTYPE
  5
16
330
5
100
AcDbSymbolTableRecord
100
AcDbLinetypeTableRecord
  2
CONTINUOUS
 70
     0
  3
Solid line
 72
    65
 73
     0
 40
0.0
  0
ENDTAB
  0
TABLE
  2
LAYER
  5
2
100
AcDbSymbolTable
 70
3
  0
LAYER
  5
50
100
AcDbSymbolTableRecord
100
AcDbLayerTableRecord
  2
0
 70
0
  6
CONTINUOUS
  0
LAYER
  5
51
100
AcDbSymbolTableRecord
100
AcDbLayerTableRecord
  2
cut_outline
 70
0
  6
CONTINUOUS
  0
LAYER
  5
52
100
AcDbSymbolTableRecord
100
AcDbLayerTableRecord
  2
cut_inner
 70
0
  6
CONTINUOUS
  0
ENDTAB
  0
TABLE
  2
STYLE
  5
3
330
0
100
AcDbSymbolTable
 70
     1
  0
STYLE
  5
11
330
3
100
AcDbSymbolTableRecord
100
AcDbTextStyleTableRecord
  2
STANDARD
 70
     0
 40
0.0
 41
1.0
 50
0.0
 71
     0
 42
2.5
  3
txt
  4

  0
ENDTAB
  0
TABLE
  2
VIEW
  5
6
330
0
100
AcDbSymbolTable
 70
     0
  0
ENDTAB
  0
TABLE
  2
UCS
  5
7
330
0
100
AcDbSymbolTable
 70
     0
  0
ENDTAB
  0
TABLE
  2
APPID
  5
9
330
0
100
AcDbSymbolTable
 70
     2
  0
APPID
  5
12
330
9
100
AcDbSymbolTableRecord
100
AcDbRegAppTableRecord
  2
ACAD
 70
     0
  0
ENDTAB
  0
TABLE
  2
DIMSTYLE
  5
A
330
0
100
AcDbSymbolTable
 70
     1
  0
DIMSTYLE
105
27
330
A
100
AcDbSymbolTableRecord
100
AcDbDimStyleTableRecord
  2
ISO-25
 70
     0
  3

  4

  5

  6

  7

 40
1.0
 41
2.5
 42
0.625
 43
3.75
 44
1.25
 45
0.0
 46
0.0
 47
0.0
 48
0.0
140
2.5
141
2.5
142
0.0
143
0.03937007874016
144
1.0
145
0.0
146
1.0
147
0.625
 71
     0
 72
     0
 73
     0
 74
     0
 75
     0
 76
     0
 77
     1
 78
     8
170
     0
171
     3
172
     1
173
     0
174
     0
175
     0
176
     0
177
     0
178
     0
270
     2
271
     2
272
     2
273
     2
274
     3
340
11
275
     0
280
     0
281
     0
282
     0
283
     0
284
     8
285
     0
286
     0
287
     3
288
     0
  0
ENDTAB
  0
TABLE
  2
BLOCK_RECORD
  5
1
330
0
100
AcDbSymbolTable
 70
     1
  0
BLOCK_RECORD
  5
1F
330
1
100
AcDbSymbolTableRecord
100
AcDbBlockTableRecord
  2
*MODEL_SPACE
  0
BLOCK_RECORD
  5
1B
330
1
100
AcDbSymbolTableRecord
100
AcDbBlockTableRecord
  2
*PAPER_SPACE
  0
ENDTAB
  0
ENDSEC
  0
SECTION
  2
BLOCKS
  0
BLOCK
  5
20
330
1F
100
AcDbEntity
  8
0
100
AcDbBlockBegin
  2
*MODEL_SPACE
 70
     0
 10
0.0
 20
0.0
 30
0.0
  3
*MODEL_SPACE
  1

  0
ENDBLK
  5
21
330
1F
100
AcDbEntity
  8
0
100
AcDbBlockEnd
  0
BLOCK
  5
1C
330
1B
100
AcDbEntity
 67
     1
  8
0
100
AcDbBlockBegin
  2
*PAPER_SPACE
  1

  0
ENDBLK
  5
1D
330
1B
100
AcDbEntity
 67
     1
  8
0
100
AcDbBlockEnd
  0
ENDSEC
  0
SECTION
  2
ENTITIES
  0
SPLINE
  5
100
100
AcDbEntity
  8
cut_outline
 62
7
100
AcDbSpline
 70
8
 71
3
 72
8
 73
4
 74
0
 40
0
 40
0
 40
0
 40
0
 40
1
 40
1
 40
1
 40
1
 10
53.967107
 20
781.500461
 30
0.0
 10
53.967106
 20
781.124564
 30
0.0
 10
54.116430
 20
780.764061
 30
0.0
 10
54.382229
 20
780.498261
 30
0.0
  0
SPLINE
  5
101
100
AcDbEntity
  8
cut_outline
 62
7
100
AcDbSpline
 70
8
 71
3
 72
8
 73
4
 74
0
 40
0
 40
0
 40
0
 40
0
 40
1
 40
1
 40
1
 40
1
 10
54.382229
 20
780.498261
 30
0.0
 10
54.648028
 20
780.232460
 30
0.0
 10
55.008530
 20
780.083135
 30
0.0
 10
55.384427
 20
780.083134
 30
0.0
  0
LWPOLYLINE
  5
102
100
AcDbEntity
  8
cut_outline
 62
7
100
AcDbPolyline
 90
2
 70
0
 10
53.967107
 20
797.091011
 30
0.0
 10
53.967107
 20
781.500461
 30
0.0
  0
SPLINE
  5
103
100
AcDbEntity
  8
cut_outline
 62
7
100
AcDbSpline
 70
8
 71
3
 72
8
 73
4
 74
0
 40
0
 40
0
 40
0
 40
0
 40
1
 40
1
 40
1
 40
1
 10
42.628525
 20
797.091011
 30
0.0
 10
37.931932
 20
797.091010
 30
0.0
 10
34.124591
 20
793.283669
 30
0.0
 10
34.124590
 20
788.587076
 30
0.0
  0
LWPOLYLINE
  5
104
100
AcDbEntity
  8
cut_outline
 62
7
100
AcDbPolyline
 90
2
 70
0
 10
53.967107
 20
797.091011
 30
0.0
 10
42.628525
 20
797.091011
 30
0.0
  0
SPLINE
  5
105
100
AcDbEntity
  8
cut_outline
 62
7
100
AcDbSpline
 70
8
 71
3
 72
8
 73
4
 74
0
 40
0
 40
0
 40
0
 40
0
 40
1
 40
1
 40
1
 40
1
 10
34.124590
 20
720.555574
 30
0.0
 10
34.124591
 20
715.858981
 30
0.0
 10
37.931932
 20
712.051640
 30
0.0
 10
42.628525
 20
712.051639
 30
0.0
  0
LWPOLYLINE
  5
106
100
AcDbEntity
  8
cut_outline
 62
7
100
AcDbPolyline
 90
2
 70
0
 10
34.124590
 20
788.587076
 30
0.0
 10
34.124590
 20
720.555574
 30
0.0
  0
SPLINE
  5
107
100
AcDbEntity
  8
cut_outline
 62
7
100
AcDbSpline
 70
8
 71
3
 72
8
 73
4
 74
0
 40
0
 40
0
 40
0
 40
0
 40
1
 40
1
 40
1
 40
1
 10
309.085215
 20
712.051639
 30
0.0
 10
313.781808
 20
712.051640
 30
0.0
 10
317.589149
 20
715.858981
 30
0.0
 10
317.589150
 20
720.555574
 30
0.0
  0
LWPOLYLINE
  5
108
100
AcDbEntity
  8
cut_outline
 62
7
100
AcDbPolyline
 90
2
 70
0
 10
42.628525
 20
712.051639
 30
0.0
 10
309.085215
 20
712.051639
 30
0.0
  0
LWPOLYLINE
  5
109
100
AcDbEntity
  8
cut_outline
 62
7
100
AcDbPolyline
 90
2
 70
0
 10
317.589150
 20
720.555574
 30
0.0
 10
317.589150
 20
739.122506
 30
0.0
  0
SPLINE
  5
10a
100
AcDbEntity
  8
cut_outline
 62
7
100
AcDbSpline
 70
8
 71
3
 72
8
 73
4
 74
0
 40
0
 40
0
 40
0
 40
0
 40
1
 40
1
 40
1
 40
1
 10
307.384425
 20
741.957154
 30
0.0
 10
307.384425
 20
741.205358
 30
0.0
 10
307.683074
 20
740.484354
 30
0.0
 10
308.214674
 20
739.952755
 30
0.0
  0
SPLINE
  5
10b
100
AcDbEntity
  8
cut_outline
 62
7
100
AcDbSpline
 70
8
 71
3
 72
8
 73
4
 74
0
 40
0
 40
0
 40
0
 40
0
 40
1
 40
1
 40
1
 40
1
 10
308.214674
 20
739.952755
 30
0.0
 10
308.746273
 20
739.421155
 30
0.0
 10
309.467277
 20
739.122506
 30
0.0
 10
310.219072
 20
739.122506
 30
0.0
  0
LWPOLYLINE
  5
10c
100
AcDbEntity
  8
cut_outline
 62
7
100
AcDbPolyline
 90
2
 70
0
 10
310.219072
 20
739.122506
 30
0.0
 10
317.589150
 20
739.122506
 30
0.0
  0
SPLINE
  5
10d
100
AcDbEntity
  8
cut_outline
 62
7
100
AcDbSpline
 70
8
 71
3
 72
8
 73
4
 74
0
 40
0
 40
0
 40
0
 40
0
 40
1
 40
1
 40
1
 40
1
 10
310.219072
 20
770.020144
 30
0.0
 10
309.467277
 20
770.020144
 30
0.0
 10
308.746273
 20
769.721495
 30
0.0
 10
308.214673
 20
769.189895
 30
0.0
  0
SPLINE
  5
10e
100
AcDbEntity
  8
cut_outline
 62
7
100
AcDbSpline
 70
8
 71
3
 72
8
 73
4
 74
0
 40
0
 40
0
 40
0
 40
0
 40
1
 40
1
 40
1
 40
1
 10
308.214673
 20
769.189895
 30
0.0
 10
307.683074
 20
768.658295
 30
0.0
 10
307.384424
 20
767.937291
 30
0.0
 10
307.384425
 20
767.185496
 30
0.0
  0
LWPOLYLINE
  5
10f
100
AcDbEntity
  8
cut_outline
 62
7
100
AcDbPolyline
 90
2
 70
0
 10
307.384425
 20
767.185496
 30
0.0
 10
307.384425
 20
741.957154
 30
0.0
  0
LWPOLYLINE
  5
110
100
AcDbEntity
  8
cut_outline
 62
7
100
AcDbPolyline
 90
2
 70
0
 10
317.589150
 20
770.020144
 30
0.0
 10
310.219072
 20
770.020144
 30
0.0
  0
SPLINE
  5
111
100
AcDbEntity
  8
cut_outline
 62
7
100
AcDbSpline
 70
8
 71
3
 72
8
 73
4
 74
0
 40
0
 40
0
 40
0
 40
0
 40
1
 40
1
 40
1
 40
1
 10
317.589150
 20
788.587076
 30
0.0
 10
317.589149
 20
793.283669
 30
0.0
 10
313.781808
 20
797.091010
 30
0.0
 10
309.085215
 20
797.091011
 30
0.0
  0
LWPOLYLINE
  5
112
100
AcDbEntity
  8
cut_outline
 62
7
100
AcDbPolyline
 90
2
 70
0
 10
317.589150
 20
770.020144
 30
0.0
 10
317.589150
 20
788.587076
 30
0.0
  0
LWPOLYLINE
  5
113
100
AcDbEntity
  8
cut_outline
 62
7
100
AcDbPolyline
 90
2
 70
0
 10
309.085215
 20
797.091011
 30
0.0
 10
84.297818
 20
797.091011
 30
0.0
  0
SPLINE
  5
114
100
AcDbEntity
  8
cut_outline
 62
7
100
AcDbSpline
 70
8
 71
3
 72
8
 73
4
 74
0
 40
0
 40
0
 40
0
 40
0
 40
1
 40
1
 40
1
 40
1
 10
82.880490
 20
780.083134
 30
0.0
 10
83.256389
 20
780.083133
 30
0.0
 10
83.616892
 20
780.232457
 30
0.0
 10
83.882693
 20
780.498258
 30
0.0
  0
SPLINE
  5
115
100
AcDbEntity
  8
cut_outline
 62
7
100
AcDbSpline
 70
8
 71
3
 72
8
 73
4
 74
0
 40
0
 40
0
 40
0
 40
0
 40
1
 40
1
 40
1
 40
1
 10
83.882693
 20
780.498258
 30
0.0
 10
84.148494
 20
780.764059
 30
0.0
 10
84.297819
 20
781.124562
 30
0.0
 10
84.297818
 20
781.500461
 30
0.0
  0
LWPOLYLINE
  5
116
100
AcDbEntity
  8
cut_outline
 62
7
100
AcDbPolyline
 90
2
 70
0
 10
84.297818
 20
781.500461
 30
0.0
 10
84.297818
 20
797.091011
 30
0.0
  0
SPLINE
  5
117
100
AcDbEntity
  8
cut_inner
 62
1
100
AcDbSpline
 70
8
 71
3
 72
8
 73
4
 74
0
 40
0
 40
0
 40
0
 40
0
 40
1
 40
1
 40
1
 40
1
 10
78.628523
 20
754.571329
 30
0.0
 10
79.214273
 20
765.631729
 30
0.0
 10
64.297027
 20
772.314971
 30
0.0
 10
56.433087
 20
764.515361
 30
0.0
  0
SPLINE
  5
118
100
AcDbEntity
  8
cut_inner
 62
1
100
AcDbSpline
 70
8
 71
3
 72
8
 73
4
 74
0
 40
0
 40
0
 40
0
 40
0
 40
1
 40
1
 40
1
 40
1
 10
56.433087
 20
764.515361
 30
0.0
 10
48.073301
 20
757.787651
 30
0.0
 10
52.389364
 20
742.726714
 30
0.0
 10
63.035849
 20
741.437801
 30
0.0
  0
SPLINE
  5
119
100
AcDbEntity
  8
cut_inner
 62
1
100
AcDbSpline
 70
8
 71
3
 72
8
 73
4
 74
0
 40
0
 40
0
 40
0
 40
0
 40
1
 40
1
 40
1
 40
1
 10
63.035849
 20
741.437801
 30
0.0
 10
70.927117
 20
739.874621
 30
0.0
 10
78.827430
 20
746.527459
 30
0.0
 10
78.628523
 20
754.571329
 30
0.0
  0
LWPOLYLINE
  5
11a
100
AcDbEntity
  8
cut_outline
 62
7
100
AcDbPolyline
 90
2
 70
0
 10
55.384427
 20
780.083134
 30
0.0
 10
82.880490
 20
780.083134
 30
0.0
  0
SPLINE
  5
11b
100
AcDbEntity
  8
cut_inner
 62
1
100
AcDbSpline
 70
8
 71
3
 72
8
 73
4
 74
0
 40
0
 40
0
 40
0
 40
0
 40
1
 40
1
 40
1
 40
1
 10
45.463172
 20
788.587076
 30
0.0
 10
45.627053
 20
792.432950
 30
0.0
 10
39.261478
 20
792.108512
 30
0.0
 10
39.808039
 20
788.304084
 30
0.0
  0
SPLINE
  5
11c
100
AcDbEntity
  8
cut_inner
 62
1
100
AcDbSpline
 70
8
 71
3
 72
8
 73
4
 74
0
 40
0
 40
0
 40
0
 40
0
 40
1
 40
1
 40
1
 40
1
 10
39.808039
 20
788.304084
 30
0.0
 10
40.144062
 20
784.788716
 30
0.0
 10
45.465898
 20
785.036421
 30
0.0
 10
45.463172
 20
788.587076
 30
0.0
  0
LWPOLYLINE
  5
11d
100
AcDbEntity
  8
cut_inner
 62
1
100
AcDbPolyline
 90
1
 70
1
 10
78.628523
 20
754.571329
 30
0.0
  0
SPLINE
  5
11e
100
AcDbEntity
  8
cut_inner
 62
1
100
AcDbSpline
 70
8
 71
3
 72
8
 73
4
 74
0
 40
0
 40
0
 40
0
 40
0
 40
1
 40
1
 40
1
 40
1
 10
45.463172
 20
720.555574
 30
0.0
 10
45.627053
 20
724.401446
 30
0.0
 10
39.261478
 20
724.077011
 30
0.0
 10
39.808039
 20
720.272584
 30
0.0
  0
SPLINE
  5
11f
100
AcDbEntity
  8
cut_inner
 62
1
100
AcDbSpline
 70
8
 71
3
 72
8
 73
4
 74
0
 40
0
 40
0
 40
0
 40
0
 40
1
 40
1
 40
1
 40
1
 10
39.808039
 20
720.272584
 30
0.0
 10
40.144062
 20
716.757214
 30
0.0
 10
45.465898
 20
717.004916
 30
0.0
 10
45.463172
 20
720.555574
 30
0.0
  0
LWPOLYLINE
  5
120
100
AcDbEntity
  8
cut_inner
 62
1
100
AcDbPolyline
 90
1
 70
1
 10
45.463172
 20
788.587076
 30
0.0
  0
SPLINE
  5
121
100
AcDbEntity
  8
cut_inner
 62
1
100
AcDbSpline
 70
8
 71
3
 72
8
 73
4
 74
0
 40
0
 40
0
 40
0
 40
0
 40
1
 40
1
 40
1
 40
1
 10
311.919863
 20
720.555574
 30
0.0
 10
312.083745
 20
724.401446
 30
0.0
 10
305.718165
 20
724.077011
 30
0.0
 10
306.264727
 20
720.272584
 30
0.0
  0
SPLINE
  5
122
100
AcDbEntity
  8
cut_inner
 62
1
100
AcDbSpline
 70
8
 71
3
 72
8
 73
4
 74
0
 40
0
 40
0
 40
0
 40
0
 40
1
 40
1
 40
1
 40
1
 10
306.264727
 20
720.272584
 30
0.0
 10
306.600750
 20
716.757214
 30
0.0
 10
311.922585
 20
717.004916
 30
0.0
 10
311.919863
 20
720.555574
 30
0.0
  0
LWPOLYLINE
  5
123
100
AcDbEntity
  8
cut_inner
 62
1
100
AcDbPolyline
 90
1
 70
1
 10
45.463172
 20
720.555574
 30
0.0
  0
LWPOLYLINE
  5
124
100
AcDbEntity
  8
cut_inner
 62
1
100
AcDbPolyline
 90
1
 70
1
 10
311.919863
 20
720.555574
 30
0.0
  0
ENDSEC
  0
SECTION
  2
OBJECTS
  0
DICTIONARY
  5
C
330
0
100
AcDbDictionary
  3
ACAD_GROUP
350
D
  3
ACAD_MLINESTYLE
350
17
  0
DICTIONARY
  5
D
330
C
100
AcDbDictionary
  0
DICTIONARY
  5
1A
330
C
100
AcDbDictionary
  0
DICTIONARY
  5
17
330
C
100
AcDbDictionary
  3
STANDARD
350
18
  0
DICTIONARY
  5
19
330
C
100
AcDbDictionary
  0
ENDSEC
  0
EOF
